<svg width="20" height="20" viewBox="0 0 20 20" fill="none" xmlns="http://www.w3.org/2000/svg">
<path d="M7.4999 3.1249C7.66556 3.12715 7.82439 3.19124 7.94521 3.30459L14.1952 9.55459C14.3126 9.67309 14.3784 9.83312 14.3784 9.9999C14.3784 10.1667 14.3126 10.3267 14.1952 10.4452L7.94521 16.6952C7.82378 16.7949 7.66962 16.8458 7.51271 16.8381C7.3558 16.8304 7.20737 16.7646 7.09628 16.6535C6.9852 16.5424 6.9194 16.394 6.9117 16.2371C6.90399 16.0802 6.95493 15.926 7.05459 15.8046L12.8671 9.9999L7.05459 4.19521C6.93723 4.07672 6.87139 3.91668 6.87139 3.7499C6.87139 3.58312 6.93723 3.42309 7.05459 3.30459C7.17542 3.19124 7.33425 3.12715 7.4999 3.1249Z" fill="white"/>
</svg>
