<svg width="20" height="20" viewBox="0 0 20 20" fill="none" xmlns="http://www.w3.org/2000/svg">
<path d="M16.6667 5.83333H3.33333C3.11232 5.83333 2.90036 5.74554 2.74408 5.58926C2.5878 5.43298 2.5 5.22101 2.5 5V3.33333C2.5 3.11232 2.5878 2.90036 2.74408 2.74408C2.90036 2.5878 3.11232 2.5 3.33333 2.5H16.6667C16.8877 2.5 17.0996 2.5878 17.2559 2.74408C17.4122 2.90036 17.5 3.11232 17.5 3.33333V5C17.5 5.22101 17.4122 5.43298 17.2559 5.58926C17.0996 5.74554 16.8877 5.83333 16.6667 5.83333Z" stroke="white" stroke-width="1.5" stroke-linecap="round" stroke-linejoin="round"/>
<path d="M16.6667 11.6668H3.33333C3.11232 11.6668 2.90036 11.579 2.74408 11.4228C2.5878 11.2665 2.5 11.0545 2.5 10.8335V9.16683C2.5 8.94582 2.5878 8.73385 2.74408 8.57757C2.90036 8.42129 3.11232 8.3335 3.33333 8.3335H16.6667C16.8877 8.3335 17.0996 8.42129 17.2559 8.57757C17.4122 8.73385 17.5 8.94582 17.5 9.16683V10.8335C17.5 11.0545 17.4122 11.2665 17.2559 11.4228C17.0996 11.579 16.8877 11.6668 16.6667 11.6668Z" stroke="white" stroke-width="1.5" stroke-linecap="round" stroke-linejoin="round"/>
<path d="M16.6667 17.4998H3.33333C3.11232 17.4998 2.90036 17.412 2.74408 17.2558C2.5878 17.0995 2.5 16.8875 2.5 16.6665V14.9998C2.5 14.7788 2.5878 14.5669 2.74408 14.4106C2.90036 14.2543 3.11232 14.1665 3.33333 14.1665H16.6667C16.8877 14.1665 17.0996 14.2543 17.2559 14.4106C17.4122 14.5669 17.5 14.7788 17.5 14.9998V16.6665C17.5 16.8875 17.4122 17.0995 17.2559 17.2558C17.0996 17.412 16.8877 17.4998 16.6667 17.4998Z" stroke="white" stroke-width="1.5" stroke-linecap="round" stroke-linejoin="round"/>
</svg>
