<svg width="20" height="20" viewBox="0 0 20 20" fill="none" xmlns="http://www.w3.org/2000/svg">
<path fill-rule="evenodd" clip-rule="evenodd" d="M9.80082 17.3782C7.99198 16.265 6.30924 14.9548 4.78273 13.471C3.70952 12.4025 2.8925 11.0999 2.39424 9.6629C1.49762 6.87534 2.54493 3.68411 5.47592 2.73969C7.01633 2.24379 8.69869 2.52722 9.99672 3.50132C11.2952 2.52841 12.977 2.24507 14.5175 2.73969C17.4485 3.68411 18.5034 6.87534 17.6067 9.6629C17.1085 11.0999 16.2914 12.4025 15.2182 13.471C13.6917 14.9548 12.009 16.265 10.2002 17.3782L10.0043 17.5001L9.80082 17.3782Z" stroke="white" stroke-linecap="round" stroke-linejoin="round"/>
<path d="M13.1165 5.87761C14.0042 6.16119 14.635 6.95819 14.7138 7.89593" stroke="white" stroke-linecap="round" stroke-linejoin="round"/>
</svg>
