<svg width="59" height="58" viewBox="0 0 59 58" fill="none" xmlns="http://www.w3.org/2000/svg">
<path d="M46.5482 9.0625H11.5243C10.1706 9.0625 9.07324 10.1585 9.07324 11.5104V46.4896C9.07324 47.8415 10.1706 48.9375 11.5243 48.9375H46.5482C47.9018 48.9375 48.9992 47.8415 48.9992 46.4896V11.5104C48.9992 10.1585 47.9018 9.0625 46.5482 9.0625Z" fill="#B5FB02"/>
<path fill-rule="evenodd" clip-rule="evenodd" d="M11.5246 10.875C11.1733 10.875 10.8884 11.1595 10.8884 11.5104V46.4896C10.8884 46.8405 11.1733 47.125 11.5246 47.125H46.5485C46.8999 47.125 47.1847 46.8405 47.1847 46.4896V11.5104C47.1847 11.1595 46.8999 10.875 46.5485 10.875H11.5246ZM7.25879 11.5104C7.25879 9.15744 9.16866 7.25 11.5246 7.25H46.5485C48.9045 7.25 50.8143 9.15744 50.8143 11.5104V46.4896C50.8143 48.8426 48.9045 50.75 46.5485 50.75H11.5246C9.16866 50.75 7.25879 48.8426 7.25879 46.4896V11.5104Z" fill="white"/>
<path fill-rule="evenodd" clip-rule="evenodd" d="M7.25879 29.0222C7.25879 28.0212 8.07131 27.2097 9.0736 27.2097H48.9552C49.9575 27.2097 50.77 28.0212 50.77 29.0222C50.77 30.0232 49.9575 30.8347 48.9552 30.8347H9.0736C8.07131 30.8347 7.25879 30.0232 7.25879 29.0222Z" fill="white"/>
<path fill-rule="evenodd" clip-rule="evenodd" d="M32.9847 27.1875C33.987 27.1875 34.7996 27.999 34.7996 29V48.9375C34.7996 49.9385 33.987 50.75 32.9847 50.75C31.9824 50.75 31.1699 49.9385 31.1699 48.9375V29C31.1699 27.999 31.9824 27.1875 32.9847 27.1875Z" fill="white"/>
<path fill-rule="evenodd" clip-rule="evenodd" d="M23.0033 7.29435C24.0056 7.29435 24.8181 8.10583 24.8181 9.10685V29.0222C24.8181 30.0232 24.0056 30.8347 23.0033 30.8347C22.001 30.8347 21.1885 30.0232 21.1885 29.0222V9.10685C21.1885 8.10583 22.001 7.29435 23.0033 7.29435Z" fill="white"/>
</svg>
