<svg width="40" height="40" viewBox="0 0 40 40" fill="none" xmlns="http://www.w3.org/2000/svg">
<path d="M32.75 15.5833C32.75 15.1691 32.4142 14.8333 32 14.8333C31.5858 14.8333 31.25 15.1691 31.25 15.5833H32.75ZM5.60565 27.1409C5.36134 26.8065 4.89213 26.7333 4.55764 26.9777C4.22314 27.222 4.15004 27.6912 4.39435 28.0257L5.60565 27.1409ZM4.87257 26.8442C4.46438 26.9146 4.19053 27.3026 4.2609 27.7107C4.33128 28.1189 4.71924 28.3928 5.12743 28.3224L4.87257 26.8442ZM9.5 26.0833L9.73829 26.7945C9.98386 26.7122 10.1696 26.509 10.2296 26.257C10.2896 26.0051 10.2154 25.74 10.0332 25.5559L9.5 26.0833ZM8 8.08331L8.66058 7.72816C8.53797 7.5001 8.30639 7.35142 8.04798 7.33485C7.78958 7.31828 7.54091 7.43618 7.39018 7.64671L8 8.08331ZM17 15.5833L16.8229 16.3121C17.0422 16.3654 17.2739 16.3171 17.4537 16.1805C17.6334 16.044 17.7421 15.8337 17.7496 15.6081L17 15.5833ZM30.5 11.0833L29.8738 11.4961C30.0126 11.7066 30.2479 11.8333 30.5 11.8333V11.0833ZM35 11.0833L35.624 11.4993C35.7775 11.2692 35.7918 10.9733 35.6613 10.7294C35.5307 10.4856 35.2766 10.3333 35 10.3333V11.0833ZM31.376 15.1673C31.1462 15.5119 31.2393 15.9776 31.584 16.2074C31.9286 16.4371 32.3943 16.344 32.624 15.9993L31.376 15.1673ZM31.25 15.5833C31.25 20.6953 29.7901 25.0043 27.1251 28.0246C24.4704 31.0332 20.5593 32.8333 15.5 32.8333V34.3333C20.9407 34.3333 25.2796 32.3834 28.2499 29.017C31.2099 25.6623 32.75 20.9713 32.75 15.5833H31.25ZM15.5 32.8333C12.6446 32.8333 10.6969 32.0926 9.21884 31.0467C7.71787 29.9846 6.65672 28.58 5.60565 27.1409L4.39435 28.0257C5.43828 29.455 6.62713 31.0503 8.35241 32.2712C10.1006 33.5082 12.3554 34.3333 15.5 34.3333V32.8333ZM5.12743 28.3224C5.16559 28.3158 5.19638 28.3072 5.19656 28.3072C5.20532 28.3048 5.21263 28.3027 5.21676 28.3015C5.22545 28.2989 5.23389 28.2963 5.24031 28.2943C5.25381 28.2901 5.27054 28.2848 5.28892 28.2788C5.32625 28.2668 5.37817 28.2498 5.44171 28.2289C5.56916 28.1869 5.74789 28.1277 5.96014 28.0571C6.38485 27.9159 6.94629 27.7285 7.50585 27.5415C8.0655 27.3545 8.6236 27.1677 9.04177 27.0277C9.25086 26.9577 9.42498 26.8994 9.54683 26.8586C9.60776 26.8382 9.65561 26.8222 9.68824 26.8112C9.70456 26.8058 9.71707 26.8016 9.7255 26.7987C9.72971 26.7973 9.73291 26.7963 9.73505 26.7955C9.73612 26.7952 9.73693 26.7949 9.73747 26.7947C9.73774 26.7946 9.73795 26.7946 9.73808 26.7945C9.73815 26.7945 9.7382 26.7945 9.73824 26.7945C9.73827 26.7945 9.73829 26.7945 9.5 26.0833C9.26171 25.3722 9.26169 25.3722 9.26166 25.3722C9.26163 25.3722 9.26158 25.3722 9.26151 25.3722C9.26138 25.3723 9.26117 25.3724 9.2609 25.3724C9.26037 25.3726 9.25956 25.3729 9.25849 25.3733C9.25636 25.374 9.25317 25.375 9.24896 25.3764C9.24054 25.3793 9.22804 25.3835 9.21174 25.3889C9.17914 25.3998 9.13131 25.4159 9.07042 25.4363C8.94863 25.4771 8.77458 25.5353 8.56557 25.6053C8.14754 25.7453 7.58971 25.9319 7.0304 26.1189C6.47101 26.3058 5.91046 26.4929 5.4869 26.6337C5.275 26.7042 5.09801 26.7628 4.97277 26.8041C4.90995 26.8247 4.86127 26.8407 4.82809 26.8514C4.81121 26.8568 4.80019 26.8603 4.79401 26.8622C4.79059 26.8633 4.7912 26.8631 4.79416 26.8622C4.79541 26.8619 4.80037 26.8604 4.80731 26.8585C4.81079 26.8576 4.81716 26.8559 4.8253 26.854C4.83113 26.8526 4.84911 26.8483 4.87257 26.8442L5.12743 28.3224ZM10.0332 25.5559C5.28541 20.756 4.92817 13.6622 8.60982 8.51991L7.39018 7.64671C3.29183 13.3711 3.69459 21.2807 8.96678 26.6107L10.0332 25.5559ZM7.33942 8.43847C9.25749 12.0061 12.8552 15.3478 16.8229 16.3121L17.1771 14.8545C13.7248 14.0155 10.4325 11.0239 8.66058 7.72816L7.33942 8.43847ZM17.7496 15.6081C17.8158 13.6054 18.5248 11.9163 19.6829 10.7329C20.837 9.55353 22.4784 8.83331 24.5 8.83331V7.33331C22.1033 7.33331 20.0663 8.19643 18.6108 9.68375C17.1594 11.167 16.3275 13.2278 16.2504 15.5585L17.7496 15.6081ZM24.5 8.83331C25.9073 8.83331 26.9754 9.10089 27.8169 9.54998C28.6568 9.99822 29.3174 10.652 29.8738 11.4961L31.1262 10.6705C30.4609 9.66129 29.6257 8.81508 28.5231 8.22664C27.4221 7.63907 26.101 7.33331 24.5 7.33331V8.83331ZM30.5 11.8333H35V10.3333H30.5V11.8333ZM34.376 10.6673L31.376 15.1673L32.624 15.9993L35.624 11.4993L34.376 10.6673Z" fill="white"/>
</svg>
