<svg width="23" height="24" viewBox="0 0 23 24" fill="none" xmlns="http://www.w3.org/2000/svg">
<g clip-path="url(#clip0_0_3067)">
<path d="M11.4993 22C16.7921 22 21.0827 17.5228 21.0827 12C21.0827 6.47715 16.7921 2 11.4993 2C6.20662 2 1.91602 6.47715 1.91602 12C1.91602 17.5228 6.20662 22 11.4993 22Z" fill="#F0F0F0"/>
<path d="M3.89701 5.91211C3.14423 6.9341 2.57661 8.11203 2.24609 9.39168H7.2316L3.89701 5.91211Z" fill="#0052B4"/>
<path d="M20.753 9.39164C20.4225 8.11203 19.8548 6.9341 19.1021 5.91211L15.7676 9.39164H20.753Z" fill="#0052B4"/>
<path d="M2.24609 14.6089C2.57664 15.8885 3.14427 17.0664 3.89701 18.0884L7.23149 14.6089H2.24609Z" fill="#0052B4"/>
<path d="M17.3346 4.06746C16.3551 3.28195 15.2263 2.68965 14 2.34473V7.54695L17.3346 4.06746Z" fill="#0052B4"/>
<path d="M5.66406 19.9331C6.64347 20.7186 7.77232 21.3109 8.99861 21.6558V16.4536L5.66406 19.9331Z" fill="#0052B4"/>
<path d="M8.99858 2.34473C7.77228 2.68965 6.64343 3.28195 5.66406 4.06742L8.99858 7.54691V2.34473Z" fill="#0052B4"/>
<path d="M14 21.6558C15.2263 21.3109 16.3551 20.7186 17.3345 19.9331L14 16.4536V21.6558Z" fill="#0052B4"/>
<path d="M15.7676 14.6089L19.1021 18.0884C19.8548 17.0665 20.4225 15.8885 20.753 14.6089H15.7676Z" fill="#0052B4"/>
<path d="M21.0016 10.6957H12.7494H12.7494V2.08465C12.3402 2.02906 11.923 2 11.4993 2C11.0756 2 10.6585 2.02906 10.2494 2.08465V10.6956V10.6956H1.99714C1.94387 11.1226 1.91602 11.5579 1.91602 12C1.91602 12.4421 1.94387 12.8774 1.99714 13.3043H10.2493H10.2493V21.9154C10.6585 21.9709 11.0756 22 11.4993 22C11.923 22 12.3402 21.971 12.7493 21.9154V13.3044V13.3044H21.0016C21.0548 12.8774 21.0827 12.4421 21.0827 12C21.0827 11.5579 21.0548 11.1226 21.0016 10.6957Z" fill="#D80027"/>
<path d="M14 14.6089L18.2764 19.0713C18.4731 18.8661 18.6607 18.6516 18.8397 18.4293L15.1785 14.6089H14V14.6089Z" fill="#D80027"/>
<path d="M8.99911 14.6089H8.99903L4.72266 19.0712C4.91926 19.2764 5.12482 19.4722 5.3379 19.659L8.99911 15.8385V14.6089Z" fill="#D80027"/>
<path d="M8.99989 9.39117V9.39109L4.72348 4.92871C4.52679 5.13387 4.33917 5.34836 4.16016 5.5707L7.8214 9.39113H8.99989V9.39117Z" fill="#D80027"/>
<path d="M14 9.39151L18.2765 4.92908C18.0798 4.72385 17.8743 4.52807 17.6612 4.34131L14 8.16174V9.39151Z" fill="#D80027"/>
</g>
<defs>
<clipPath id="clip0_0_3067">
<rect width="19.1667" height="20" fill="white" transform="translate(1.91602 2)"/>
</clipPath>
</defs>
</svg>
