<svg width="19" height="19" viewBox="0 0 19 19" fill="none" xmlns="http://www.w3.org/2000/svg">
<path d="M17.4314 9.50008C17.4314 13.8779 13.8779 17.4314 9.50008 17.4314V19.0002C14.7443 19.0002 19.0002 14.7443 19.0002 9.50008H17.4314ZM9.50008 17.4314C5.12225 17.4314 1.56882 13.8779 1.56882 9.50008H0C0 14.7443 4.25581 19.0002 9.50008 19.0002V17.4314ZM1.56882 9.50008C1.56882 5.12225 5.12225 1.56882 9.50008 1.56882V0C4.25581 0 0 4.25581 0 9.50008H1.56882ZM9.50008 1.56882C13.8779 1.56882 17.4314 5.12225 17.4314 9.50008H19.0002C19.0002 4.25581 14.7443 0 9.50008 0V1.56882Z" fill="#93989A"/>
<path d="M12.332 12.9454C12.704 13.1674 13.1856 13.0458 13.4076 12.6738C13.6296 12.3018 13.508 11.8202 13.136 11.5982L12.332 12.9454ZM10.0321 10.6594L10.4341 9.98582L10.432 9.98458L10.0321 10.6594ZM9.96242 5.58688C9.96242 5.15366 9.61123 4.80247 9.17801 4.80247C8.7448 4.80247 8.3936 5.15366 8.3936 5.58688H9.96242ZM13.136 11.5982L10.4341 9.98583L9.63017 11.333L12.332 12.9454L13.136 11.5982ZM10.432 9.98458C10.3417 9.93107 10.2154 9.80748 10.11 9.62259C10.0046 9.43775 9.96242 9.26599 9.96242 9.16031H8.3936C8.3936 9.60371 8.5432 10.0421 8.74719 10.3998C8.95116 10.7574 9.25192 11.1088 9.63226 11.3342L10.432 9.98458ZM9.96242 9.16031V5.58688H8.3936V9.16031H9.96242Z" fill="#93989A"/>
</svg>
