<svg width="18" height="18" viewBox="0 0 18 18" fill="none" xmlns="http://www.w3.org/2000/svg">
<path d="M12.9373 9.0002C12.9353 9.14929 12.8776 9.29224 12.7756 9.40099L7.15058 15.026C7.04129 15.1157 6.90254 15.1615 6.76132 15.1546C6.6201 15.1477 6.48651 15.0884 6.38654 14.9885C6.28656 14.8885 6.22735 14.7549 6.22041 14.6137C6.21348 14.4725 6.25932 14.3337 6.34901 14.2244L11.5803 9.0002L6.34901 3.77599C6.25932 3.66669 6.21348 3.52795 6.22041 3.38673C6.22735 3.24551 6.28656 3.11192 6.38654 3.01195C6.48651 2.91197 6.6201 2.85276 6.76132 2.84582C6.90254 2.83889 7.04129 2.88473 7.15058 2.97442L12.7756 8.59942C12.8776 8.70817 12.9353 8.85112 12.9373 9.0002Z" fill="#E2E5E9"/>
</svg>
