<svg width="24" height="23" viewBox="0 0 24 23" fill="none" xmlns="http://www.w3.org/2000/svg">
<path d="M13.1165 11.3849C13.5789 11.3849 13.9537 10.9952 13.9537 10.5144C13.9537 10.0337 13.5789 9.64402 13.1165 9.64402V11.3849ZM6.419 9.64402C5.95664 9.64402 5.58181 10.0337 5.58181 10.5144C5.58181 10.9952 5.95664 11.3849 6.419 11.3849V9.64402ZM13.1165 9.64402H6.419V11.3849H13.1165V9.64402Z" fill="#93989A"/>
<path d="M0 10.5148C0 10.9955 0.374822 11.3852 0.83719 11.3852C1.29956 11.3852 1.67438 10.9955 1.67438 10.5148H0ZM14.5113 4.71192C14.5113 5.19264 14.8861 5.58235 15.3485 5.58235C15.8108 5.58235 16.1857 5.19264 16.1857 4.71192H14.5113ZM1.67438 10.5148V5.15294H0V10.5148H1.67438ZM1.67438 5.15294C1.67438 3.2661 3.14138 1.74086 4.95617 1.74086V0C2.21665 0 0 2.30465 0 5.15294H1.67438ZM4.95617 1.74086H11.2295V0H4.95617V1.74086ZM11.2295 1.74086C12.199 1.74086 13.0265 2.05448 13.5979 2.56404C14.1574 3.06299 14.5113 3.78196 14.5113 4.71192H16.1857C16.1857 3.2743 15.6186 2.07254 14.688 1.24263C13.7692 0.423345 12.5371 0 11.2295 0V1.74086Z" fill="#93989A"/>
<path d="M18.1168 11.7332L18.6966 12.3612C18.7034 12.3544 18.71 12.3475 18.7166 12.3405L18.1168 11.7332ZM17.514 14.0311L16.7044 14.2527L16.7055 14.2571L17.514 14.0311ZM20.9298 15.7952H21.7669C21.7669 15.3145 21.3921 14.9248 20.9298 14.9248V15.7952ZM20.9298 11.0369V11.9073C21.3921 11.9073 21.7669 11.5176 21.7669 11.0369H20.9298ZM19.7242 11.0369V11.9073V11.0369ZM17.537 11.1053C16.7643 11.8765 16.4021 13.0586 16.7044 14.2527L18.3236 13.8096C18.1794 13.2396 18.3529 12.7041 18.6966 12.3612L17.537 11.1053ZM16.7055 14.2571C17.1002 15.7834 18.5123 16.6657 19.8916 16.6657V14.9248C19.1278 14.9248 18.4861 14.4375 18.3225 13.8052L16.7055 14.2571ZM19.8916 16.6657H20.9298V14.9248H19.8916V16.6657ZM20.0926 15.7952V17.4781H21.7669V15.7952H20.0926ZM20.0926 17.4781C20.0926 19.5622 18.4693 21.2499 16.4647 21.2499V22.9908C19.394 22.9908 21.7669 20.5237 21.7669 17.4781H20.0926ZM16.4647 21.2499H5.30221V22.9908H16.4647V21.2499ZM5.30221 21.2499C3.29765 21.2499 1.67438 19.5622 1.67438 17.4781H0C0 20.5237 2.37292 22.9908 5.30221 22.9908V21.2499ZM1.67438 17.4781V9.35408H0V17.4781H1.67438ZM1.67438 9.35408C1.67438 7.26994 3.29765 5.58223 5.30221 5.58223V3.84137C2.37292 3.84137 0 6.3085 0 9.35408H1.67438ZM5.30221 5.58223H16.4647V3.84137H5.30221V5.58223ZM16.4647 5.58223C18.4581 5.58223 20.0926 7.28155 20.0926 9.35408H21.7669C21.7669 6.32011 19.3829 3.84137 16.4647 3.84137V5.58223ZM20.0926 9.35408V11.0369H21.7669V9.35408H20.0926ZM20.9298 10.1664H19.7242V11.9073H20.9298V10.1664ZM19.7242 10.1664C18.8747 10.1664 18.0887 10.5156 17.5169 11.126L18.7166 12.3405C18.971 12.0689 19.3235 11.9073 19.7242 11.9073V10.1664Z" fill="#93989A"/>
<path d="M17.447 13.6252L18.2813 13.5529L18.2804 13.5426L17.447 13.6252ZM18.1167 11.7334L18.7015 12.3563C18.7066 12.3511 18.7116 12.3459 18.7165 12.3407L18.1167 11.7334ZM22.0124 11.0371V10.1666V11.0371ZM22.325 12.2209V14.6116H23.9994V12.2209H22.325ZM22.325 14.6116C22.325 14.7753 22.1916 14.925 22.0124 14.925V16.6659C23.1057 16.6659 23.9994 15.7478 23.9994 14.6116H22.325ZM22.0124 14.925H19.858V16.6659H22.0124V14.925ZM19.858 14.925C19.0219 14.925 18.3403 14.2898 18.2813 13.5529L16.6127 13.6975C16.7545 15.4673 18.2831 16.6659 19.858 16.6659V14.925ZM18.2804 13.5426C18.2386 13.0869 18.4045 12.6577 18.7015 12.3563L17.5319 11.1106C16.8912 11.7608 16.5213 12.7012 16.6135 13.7077L18.2804 13.5426ZM18.7165 12.3407C18.9709 12.0691 19.3234 11.9075 19.7241 11.9075V10.1666C18.8746 10.1666 18.0885 10.5158 17.5169 11.1262L18.7165 12.3407ZM19.7241 11.9075H22.0124V10.1666H19.7241V11.9075ZM22.0124 11.9075C22.1916 11.9075 22.325 12.0572 22.325 12.2209H23.9994C23.9994 11.0847 23.1057 10.1666 22.0124 10.1666V11.9075Z" fill="#93989A"/>
</svg>
