<svg width="17" height="17" viewBox="0 0 17 17" fill="none" xmlns="http://www.w3.org/2000/svg">
<path d="M14.6818 8.11364C14.6818 11.7411 11.7411 14.6818 8.11364 14.6818V16.2273C12.5946 16.2273 16.2273 12.5946 16.2273 8.11364H14.6818ZM8.11364 14.6818C4.48613 14.6818 1.54545 11.7411 1.54545 8.11364H0C0 12.5946 3.6326 16.2273 8.11364 16.2273V14.6818ZM1.54545 8.11364C1.54545 4.48613 4.48613 1.54545 8.11364 1.54545V0C3.6326 0 0 3.6326 0 8.11364H1.54545ZM8.11364 1.54545C11.7411 1.54545 14.6818 4.48613 14.6818 8.11364H16.2273C16.2273 3.6326 12.5946 0 8.11364 0V1.54545Z" fill="#93989A"/>
<path d="M15.6809 16.7737C15.9826 17.0754 16.4719 17.0754 16.7737 16.7737C17.0754 16.4719 17.0754 15.9826 16.7737 15.6809L15.6809 16.7737ZM15.2282 14.1354C14.9264 13.8336 14.4372 13.8336 14.1354 14.1354C13.8336 14.4372 13.8336 14.9264 14.1354 15.2282L15.2282 14.1354ZM16.7737 15.6809L15.2282 14.1354L14.1354 15.2282L15.6809 16.7737L16.7737 15.6809Z" fill="#93989A"/>
</svg>
