<svg width="169" height="170" viewBox="0 0 169 170" fill="none" xmlns="http://www.w3.org/2000/svg">
<circle cx="21.0186" cy="148.714" r="20.5186" stroke="#E5E5E5"/>
<path d="M166.797 -1.20997e-07C168.012 -5.42365e-08 169 0.620649 169 1.38346C169 2.14627 168.012 2.76807 166.797 2.76807C165.581 2.76807 164.593 2.14627 164.593 1.38346C164.593 0.620649 165.581 -1.87757e-07 166.797 -1.20997e-07Z" fill="#E5E5E5"/>
<path d="M157.983 -1.20997e-07C159.199 -5.42365e-08 160.187 0.620649 160.187 1.38346C160.187 2.14627 159.199 2.76807 157.983 2.76807C156.768 2.76807 155.78 2.14627 155.78 1.38346C155.78 0.620649 156.768 -1.87757e-07 157.983 -1.20997e-07Z" fill="#E5E5E5"/>
<path d="M149.17 -1.20997e-07C150.385 -5.42365e-08 151.373 0.620649 151.373 1.38346C151.373 2.14627 150.385 2.76807 149.17 2.76807C147.954 2.76807 146.966 2.14627 146.966 1.38346C146.966 0.620649 147.954 -1.87757e-07 149.17 -1.20997e-07Z" fill="#E5E5E5"/>
</svg>
