<svg width="22" height="22" viewBox="0 0 22 22" fill="none" xmlns="http://www.w3.org/2000/svg">
<path d="M2.27382 10.2019C2.27382 9.77807 1.9247 9.43448 1.49405 9.43448C1.06339 9.43448 0.71427 9.77807 0.71427 10.2019H2.27382ZM20.9572 10.2019C20.9572 9.77807 20.6081 9.43448 20.1775 9.43448C19.7468 9.43448 19.3977 9.77807 19.3977 10.2019H20.9572ZM0.71427 10.2019V14.7963H2.27382V10.2019H0.71427ZM0.71427 14.7963C0.71427 17.1696 1.19292 19.0311 2.46192 20.28C3.73093 21.5289 5.6223 22 8.03377 22V20.4651C5.77697 20.4651 4.39848 20.0153 3.56469 19.1947C2.73091 18.3741 2.27382 17.0174 2.27382 14.7963H0.71427ZM8.03377 22H13.6378V20.4651H8.03377V22ZM13.6378 22C16.0492 22 17.9406 21.5289 19.2096 20.28C20.4786 19.0311 20.9572 17.1696 20.9572 14.7963H19.3977C19.3977 17.0174 18.9406 18.3741 18.1068 19.1947C17.2731 20.0153 15.8945 20.4651 13.6378 20.4651V22ZM20.9572 14.7963V10.2019H19.3977V14.7963H20.9572Z" fill="#93989A"/>
<path d="M13.9603 7.60277L14.7363 7.52764L14.7363 7.52731L13.9603 7.60277ZM13.2741 0.767439L14.0501 0.691982C14.0106 0.299273 13.675 0 13.2741 0V0.767439ZM8.41865 0.767439V0C8.01813 0 7.68274 0.298632 7.64277 0.69085L8.41865 0.767439ZM7.72205 7.60277L6.94617 7.52618L6.94602 7.52764L7.72205 7.60277ZM10.8412 11.7674C13.2064 11.7674 14.9684 9.84981 14.7363 7.52764L13.1842 7.67789C13.3264 9.10083 12.2812 10.2325 10.8412 10.2325V11.7674ZM14.7363 7.52731L14.0501 0.691982L12.4981 0.842897L13.1843 7.67822L14.7363 7.52731ZM13.2741 0H8.41865V1.53488H13.2741V0ZM7.64277 0.69085L6.94617 7.52618L8.49794 7.67936L9.19454 0.844029L7.64277 0.69085ZM6.94602 7.52764C6.71394 9.84981 8.47589 11.7674 10.8412 11.7674V10.2325C9.40112 10.2325 8.35587 9.10083 8.49808 7.67789L6.94602 7.52764Z" fill="#93989A"/>
<path d="M20.8337 7.26509L21.6097 7.18911L21.6095 7.18736L20.8337 7.26509ZM20.5426 4.45115L21.3184 4.37341C21.3174 4.36422 21.3163 4.35504 21.315 4.3459L20.5426 4.45115ZM13.2335 0.767439V0C13.0132 0 12.8032 0.0917029 12.6554 0.252444C12.5076 0.413183 12.4357 0.627963 12.4576 0.843695L13.2335 0.767439ZM13.9613 7.94044L13.1854 8.01669L13.1856 8.0191L13.9613 7.94044ZM17.4027 11.7674C19.9657 11.7674 21.8631 9.69596 21.6097 7.18911L20.0578 7.34108C20.2202 8.94771 19.0402 10.2325 17.4027 10.2325V11.7674ZM21.6095 7.18736L21.3184 4.37341L19.7668 4.52888L20.058 7.34283L21.6095 7.18736ZM21.315 4.3459C21.1199 2.95933 20.7321 1.81896 19.8838 1.04788C19.0254 0.267452 17.8465 0 16.4046 0V1.53488C17.6867 1.53488 18.3897 1.77905 18.8257 2.17536C19.2719 2.58102 19.591 3.28251 19.7702 4.5564L21.315 4.3459ZM16.4046 0H13.2335V1.53488H16.4046V0ZM12.4576 0.843695L13.1854 8.01669L14.7372 7.86419L14.0094 0.691184L12.4576 0.843695ZM13.1856 8.0191C13.4034 10.0989 15.2876 11.7674 17.4027 11.7674V10.2325C16.0868 10.2325 14.8727 9.15869 14.737 7.86178L13.1856 8.0191Z" fill="#93989A"/>
<path d="M7.66068 7.94044L6.88474 7.86442L6.88455 7.86637L7.66068 7.94044ZM7.88942 5.67905L7.11351 5.60269L7.11347 5.60303L7.88942 5.67905ZM8.38848 0.767439L9.16438 0.843802C9.1863 0.628055 9.11447 0.413248 8.96665 0.252483C8.81881 0.0917192 8.60878 0 8.38848 0V0.767439ZM1.07937 4.45115L0.306968 4.3459C0.305552 4.35595 0.304339 4.36604 0.30333 4.37616L1.07937 4.45115ZM0.798656 7.26509L1.5746 7.34108L1.5747 7.34008L0.798656 7.26509ZM4.22967 11.7674C6.34378 11.7674 8.23143 10.099 8.43682 8.01451L6.88455 7.86637C6.75723 9.15859 5.54657 10.2325 4.22967 10.2325V11.7674ZM8.43663 8.01646L8.66536 5.75507L7.11347 5.60303L6.88474 7.86442L8.43663 8.01646ZM8.66532 5.75542L9.16438 0.843802L7.61257 0.691076L7.11351 5.60269L8.66532 5.75542ZM8.38848 0H5.21739V1.53488H8.38848V0ZM5.21739 0C3.7755 0 2.59662 0.267452 1.73814 1.04788C0.88993 1.81896 0.502039 2.95933 0.306968 4.3459L1.85178 4.5564C2.031 3.28251 2.35011 2.58102 2.79633 2.17536C3.23228 1.77905 3.93525 1.53488 5.21739 1.53488V0ZM0.30333 4.37616L0.022611 7.19011L1.5747 7.34008L1.85542 4.52613L0.30333 4.37616ZM0.0227118 7.18911C-0.230736 9.69596 1.66672 11.7674 4.22967 11.7674V10.2325C2.59222 10.2325 1.41217 8.94771 1.5746 7.34108L0.0227118 7.18911Z" fill="#93989A"/>
<path d="M8.24145 21.2327H7.46167C7.46167 21.6565 7.81079 22.0001 8.24145 22.0001V21.2327ZM13.44 21.2327V22.0001C13.8706 22.0001 14.2197 21.6565 14.2197 21.2327H13.44ZM10.8407 15.349C9.85354 15.349 8.96976 15.5908 8.33858 16.212C7.7074 16.8332 7.46167 17.703 7.46167 18.6745H9.02123C9.02123 17.9373 9.20698 17.528 9.44135 17.2973C9.67572 17.0667 10.0916 16.8839 10.8407 16.8839V15.349ZM7.46167 18.6745V21.2327H9.02123V18.6745H7.46167ZM8.24145 22.0001H13.44V20.4652H8.24145V22.0001ZM14.2197 21.2327V18.6745H12.6602V21.2327H14.2197ZM14.2197 18.6745C14.2197 17.703 13.974 16.8332 13.3428 16.212C12.7116 15.5908 11.8279 15.349 10.8407 15.349V16.8839C11.5898 16.8839 12.0057 17.0667 12.2401 17.2973C12.4744 17.528 12.6602 17.9373 12.6602 18.6745H14.2197Z" fill="#93989A"/>
</svg>
