<svg width="20" height="20" viewBox="0 0 20 20" fill="none" xmlns="http://www.w3.org/2000/svg">
<path d="M11.5916 8.40831C12.0138 8.83045 12.2509 9.40299 12.2509 9.99998C12.2509 10.597 12.0138 11.1695 11.5916 11.5916C11.1695 12.0138 10.597 12.2509 9.99998 12.2509C9.40299 12.2509 8.83045 12.0138 8.40831 11.5916C7.98618 11.1695 7.74902 10.597 7.74902 9.99998C7.74902 9.70438 7.80725 9.41167 7.92037 9.13858C8.03349 8.86548 8.19929 8.61733 8.40831 8.40831C8.61733 8.19929 8.86548 8.03349 9.13858 7.92037C9.41167 7.80725 9.70438 7.74902 9.99998 7.74902C10.597 7.74902 11.1695 7.98618 11.5916 8.40831" stroke="white" stroke-width="1.5" stroke-linecap="round" stroke-linejoin="round"/>
<path d="M4.37515 10C4.37515 10.2475 4.39765 10.495 4.42765 10.735L3.10431 11.77C2.96238 11.8812 2.86534 12.0398 2.83105 12.2168C2.79675 12.3938 2.8275 12.5772 2.91765 12.7333L4.09431 14.7692C4.18443 14.9251 4.32774 15.0433 4.49795 15.102C4.66816 15.1608 4.85386 15.1562 5.02098 15.0892L6.20598 14.6133C6.32133 14.5687 6.44584 14.5528 6.5687 14.5672C6.69156 14.5816 6.80905 14.6257 6.91098 14.6958C7.09431 14.8175 7.28431 14.9292 7.48098 15.0292C7.70598 15.1433 7.86931 15.3475 7.90515 15.5975L8.08598 16.8583C8.13848 17.2267 8.45431 17.5 8.82598 17.5H11.1735C11.3534 17.5 11.5273 17.4351 11.6632 17.3173C11.7991 17.1994 11.888 17.0364 11.9135 16.8583L12.0943 15.5983C12.114 15.476 12.1631 15.3603 12.2375 15.2611C12.3118 15.162 12.4091 15.0824 12.521 15.0292C12.7168 14.9308 12.906 14.82 13.0885 14.6992C13.1907 14.6283 13.3086 14.5835 13.4321 14.5687C13.5556 14.5539 13.6808 14.5695 13.7968 14.6142L14.9793 15.0892C15.1464 15.1561 15.3321 15.1605 15.5023 15.1018C15.6724 15.043 15.8157 14.9249 15.906 14.7692L17.0826 12.7333C17.1728 12.5772 17.2035 12.3938 17.1692 12.2168C17.1349 12.0398 17.0379 11.8812 16.896 11.77L15.5726 10.735C15.6026 10.495 15.6251 10.2475 15.6251 10C15.6251 9.7525 15.6026 9.505 15.5726 9.265L16.896 8.23C17.0379 8.11884 17.1349 7.96019 17.1692 7.7832C17.2035 7.60621 17.1728 7.42279 17.0826 7.26667L15.906 5.23083C15.8159 5.07492 15.6726 4.95674 15.5023 4.89796C15.3321 4.83918 15.1464 4.84375 14.9793 4.91083L13.7968 5.38583C13.6807 5.43028 13.5556 5.44577 13.4321 5.43096C13.3087 5.41615 13.1908 5.37148 13.0885 5.30083C12.9061 5.17963 12.7166 5.06943 12.521 4.97083C12.4091 4.91761 12.3118 4.838 12.2375 4.73886C12.1631 4.63971 12.114 4.524 12.0943 4.40167L11.9143 3.14167C11.8888 2.96356 11.8 2.80062 11.664 2.68275C11.5281 2.56488 11.3542 2.49999 11.1743 2.5H8.82681C8.64689 2.49999 8.47301 2.56488 8.33708 2.68275C8.20115 2.80062 8.11229 2.96356 8.08681 3.14167L7.90515 4.40333C7.88543 4.52522 7.83658 4.64054 7.76273 4.73949C7.68888 4.83844 7.59222 4.91809 7.48098 4.97167C7.28431 5.07167 7.09431 5.18417 6.91098 5.305C6.80874 5.37476 6.69108 5.41863 6.56813 5.43286C6.44518 5.44709 6.32062 5.43123 6.20515 5.38667L5.02098 4.91083C4.85386 4.84375 4.66816 4.83918 4.49795 4.89796C4.32774 4.95674 4.18443 5.07492 4.09431 5.23083L2.91765 7.26667C2.8275 7.42279 2.79675 7.60621 2.83105 7.7832C2.86534 7.96019 2.96238 8.11884 3.10431 8.23L4.42765 9.265C4.39497 9.50868 4.37744 9.75415 4.37515 10V10Z" stroke="white" stroke-width="1.5" stroke-linecap="round" stroke-linejoin="round"/>
</svg>
