<svg width="23" height="24" viewBox="0 0 23 24" fill="none" xmlns="http://www.w3.org/2000/svg">
<g clip-path="url(#clip0_0_1915)">
<path d="M11.5 22C16.7927 22 21.0833 17.5228 21.0833 12C21.0833 6.47715 16.7927 2 11.5 2C6.20727 2 1.91666 6.47715 1.91666 12C1.91666 17.5228 6.20727 22 11.5 22Z" fill="#F0F0F0"/>
<path d="M3.89772 5.91211C3.14494 6.9341 2.57732 8.11203 2.2468 9.39168H7.23231L3.89772 5.91211Z" fill="#0052B4"/>
<path d="M20.7532 9.39164C20.4227 8.11203 19.855 6.9341 19.1023 5.91211L15.7678 9.39164H20.7532Z" fill="#0052B4"/>
<path d="M2.2468 14.6089C2.57735 15.8885 3.14498 17.0664 3.89772 18.0884L7.2322 14.6089H2.2468Z" fill="#0052B4"/>
<path d="M17.3345 4.06746C16.3551 3.28195 15.2263 2.68965 14 2.34473V7.54695L17.3345 4.06746Z" fill="#0052B4"/>
<path d="M5.66547 19.9331C6.64488 20.7186 7.77373 21.3109 9.00003 21.6558V16.4536L5.66547 19.9331Z" fill="#0052B4"/>
<path d="M8.99999 2.34473C7.77369 2.68965 6.64485 3.28195 5.66547 4.06742L8.99999 7.54691V2.34473Z" fill="#0052B4"/>
<path d="M14 21.6558C15.2263 21.3109 16.3552 20.7186 17.3345 19.9331L14 16.4536V21.6558Z" fill="#0052B4"/>
<path d="M15.7678 14.6089L19.1023 18.0884C19.855 17.0665 20.4227 15.8885 20.7532 14.6089H15.7678Z" fill="#0052B4"/>
<path d="M21.0022 10.6957H12.7501H12.75V2.08465C12.3408 2.02906 11.9236 2 11.5 2C11.0763 2 10.6592 2.02906 10.25 2.08465V10.6956V10.6956H1.99779C1.94452 11.1226 1.91666 11.5579 1.91666 12C1.91666 12.4421 1.94452 12.8774 1.99779 13.3043H10.2499H10.25V21.9154C10.6592 21.9709 11.0763 22 11.5 22C11.9236 22 12.3408 21.971 12.75 21.9154V13.3044V13.3044H21.0022C21.0555 12.8774 21.0833 12.4421 21.0833 12C21.0833 11.5579 21.0555 11.1226 21.0022 10.6957Z" fill="#D80027"/>
<path d="M14 14.6089L18.2764 19.0713C18.4731 18.8661 18.6607 18.6516 18.8397 18.4293L15.1785 14.6089H14V14.6089Z" fill="#D80027"/>
<path d="M8.99998 14.6089H8.99991L4.72353 19.0712C4.92014 19.2764 5.1257 19.4722 5.33878 19.659L8.99998 15.8385V14.6089Z" fill="#D80027"/>
<path d="M8.99998 9.39117V9.39109L4.72357 4.92871C4.52689 5.13387 4.33926 5.34836 4.16025 5.5707L7.82149 9.39113H8.99998V9.39117Z" fill="#D80027"/>
<path d="M14 9.39151L18.2765 4.92908C18.0799 4.72385 17.8743 4.52807 17.6612 4.34131L14 8.16174V9.39151Z" fill="#D80027"/>
</g>
<defs>
<clipPath id="clip0_0_1915">
<rect width="19.1667" height="20" fill="white" transform="translate(1.91666 2)"/>
</clipPath>
</defs>
</svg>
