<svg width="24" height="23" viewBox="0 0 24 23" fill="none" xmlns="http://www.w3.org/2000/svg">
<path d="M22.3772 9.74747L21.5771 9.55541L22.3772 9.74747ZM21.3035 14.4369L20.5034 14.2448L20.5031 14.2463L21.3035 14.4369ZM15.146 19.7882L15.2247 18.9506L15.2115 18.9495L15.146 19.7882ZM13.3711 19.4853L13.5639 18.6675L13.5614 18.6668L13.3711 19.4853ZM11.5304 19.0366L11.7207 18.218L11.7202 18.2179L11.5304 19.0366ZM6.62196 10.9254L7.422 11.1175L7.42209 11.1171L6.62196 10.9254ZM7.69569 6.22478L6.8958 6.03206L6.89555 6.03316L7.69569 6.22478ZM8.50646 3.75665L9.24385 4.12799L9.24625 4.12288L8.50646 3.75665ZM15.6281 1.19877L15.439 2.01759L15.4412 2.01813L15.6281 1.19877ZM17.4578 1.6363L17.6449 0.817009L17.6447 0.816944L17.4578 1.6363ZM21.5771 9.55541L20.5034 14.2448L22.1035 14.6289L23.1772 9.93953L21.5771 9.55541ZM20.5031 14.2463C20.0596 16.198 19.4304 17.4145 18.6273 18.1183C17.8519 18.7977 16.7908 19.1049 15.2247 18.9507L15.0674 20.6258C16.9196 20.8082 18.4771 20.4647 19.6958 19.3968C20.8867 18.3532 21.627 16.7257 22.1038 14.6276L20.5031 14.2463ZM15.2115 18.9495C14.7137 18.9088 14.1651 18.816 13.5639 18.6675L13.1783 20.3033C13.848 20.4687 14.4826 20.578 15.0805 20.627L15.2115 18.9495ZM13.5614 18.6668L11.7207 18.218L11.3401 19.8551L13.1807 20.3038L13.5614 18.6668ZM11.7202 18.2179C9.51423 17.6817 8.27804 16.9008 7.65828 15.8791C7.03911 14.8584 6.9039 13.3803 7.422 11.1175L5.82193 10.7334C5.2663 13.1601 5.30091 15.1822 6.26219 16.767C7.2229 18.3509 8.97779 19.2809 11.3406 19.8553L11.7202 18.2179ZM7.42209 11.1171L8.49582 6.4164L6.89555 6.03316L5.82183 10.7338L7.42209 11.1171ZM8.49556 6.41749C8.70669 5.49871 8.95228 4.73499 9.24383 4.12798L7.76908 3.38532C7.40325 4.14699 7.12293 5.04366 6.8958 6.03206L8.49556 6.41749ZM9.24625 4.12288C9.81414 2.92015 10.5314 2.24505 11.4438 1.92263C12.3944 1.58669 13.676 1.59062 15.439 2.01759L15.8172 0.379959C13.9207 -0.0793537 12.2825 -0.153961 10.9076 0.33188C9.49456 0.831227 8.48066 1.8782 7.76665 3.39041L9.24625 4.12288ZM15.4412 2.01813L17.271 2.45566L17.6447 0.816944L15.815 0.379413L15.4412 2.01813ZM17.2706 2.4556C19.4869 2.98637 20.7243 3.76746 21.3434 4.78923C21.9625 5.81099 22.0955 7.29162 21.5771 9.55541L23.1772 9.93953C23.7326 7.51388 23.7013 5.48863 22.7399 3.90204C21.7785 2.31544 20.0195 1.38568 17.6449 0.817009L17.2706 2.4556Z" fill="white"/>
<path d="M15.1461 19.7888L15.6069 20.4854C15.8959 20.285 16.0296 19.9198 15.9407 19.5743C15.8517 19.2289 15.5595 18.9786 15.2116 18.9501L15.1461 19.7888ZM12.5714 21.0005L12.3164 20.2006L12.3144 20.2012L12.5714 21.0005ZM10.8403 21.5838L11.0924 22.3846L11.0972 22.3831L10.8403 21.5838ZM2.78736 17.3656L2.00565 17.625L2.00585 17.6256L2.78736 17.3656ZM1.38494 12.9342L0.602862 13.1924L0.603237 13.1935L1.38494 12.9342ZM5.49358 4.68837L5.74574 5.4892L5.75047 5.48761L5.49358 4.68837ZM7.22468 4.105L6.97631 3.30289L6.9678 3.30576L7.22468 4.105ZM8.50658 3.75722L9.24396 4.12855C9.38135 3.84248 9.34907 3.50148 9.16057 3.24777C8.97207 2.99406 8.65972 2.87122 8.35382 2.93047L8.50658 3.75722ZM7.69581 6.22534L6.89593 6.03263L6.89567 6.03372L7.69581 6.22534ZM6.62208 10.926L7.42212 11.1181L7.42221 11.1176L6.62208 10.926ZM11.5305 19.0372L11.7209 18.2186L11.7204 18.2185L11.5305 19.0372ZM13.3712 19.4859L13.564 18.668L13.5615 18.6674L13.3712 19.4859ZM14.6853 19.0923C14.0918 19.5039 13.3152 19.8668 12.3165 20.2006L12.8263 21.8003C13.9093 21.4385 14.8419 21.0162 15.6069 20.4854L14.6853 19.0923ZM12.3144 20.2012L10.5834 20.7846L11.0972 22.3831L12.8283 21.7997L12.3144 20.2012ZM10.5881 20.783C8.48963 21.4758 7.09072 21.4602 6.087 20.9344C5.083 20.4083 4.25088 19.2547 3.56886 17.1055L2.00585 17.6256C2.7372 19.9302 3.75672 21.6038 5.33841 22.4324C6.9204 23.2613 8.84127 23.1279 11.0924 22.3846L10.5881 20.783ZM3.56907 17.1062L2.16666 12.6748L0.603237 13.1935L2.00565 17.625L3.56907 17.1062ZM2.16703 12.676C1.49019 10.5264 1.50286 9.09062 2.01455 8.06125C2.52558 7.03322 3.6484 6.1816 5.74574 5.48919L5.24143 3.88756C2.98908 4.63115 1.35638 5.6755 0.549908 7.2979C-0.255908 8.91897 -0.122718 10.888 0.602863 13.1924L2.16703 12.676ZM5.75047 5.48761L7.48158 4.90423L6.9678 3.30576L5.23669 3.88914L5.75047 5.48761ZM7.47305 4.90705C7.90984 4.76524 8.30121 4.65333 8.65933 4.58396L8.35382 2.93047C7.90117 3.01816 7.43795 3.15307 6.97632 3.30294L7.47305 4.90705ZM7.7692 3.38589C7.40337 4.14756 7.12305 5.04423 6.89593 6.03263L8.4957 6.41806C8.70683 5.49928 8.95241 4.73556 9.24396 4.12855L7.7692 3.38589ZM6.89567 6.03372L5.82195 10.7344L7.42221 11.1176L8.49594 6.41697L6.89567 6.03372ZM5.82205 10.7339C5.26643 13.1606 5.30103 15.1827 6.26232 16.7676C7.22303 18.3514 8.97791 19.2814 11.3407 19.8558L11.7204 18.2185C9.51436 17.6823 8.27816 16.9015 7.65841 15.8796C7.03924 14.8589 6.90402 13.3808 7.42212 11.1181L5.82205 10.7339ZM11.3402 19.8557L13.1809 20.3044L13.5615 18.6674L11.7209 18.2186L11.3402 19.8557ZM13.1784 20.3039C13.8481 20.4694 14.4827 20.5786 15.0806 20.6275L15.2116 18.9501C14.7139 18.9093 14.1652 18.8166 13.564 18.668L13.1784 20.3039Z" fill="white"/>
<path d="M12.6964 6.79017C12.2565 6.67594 11.8094 6.94848 11.6979 7.39892C11.5863 7.84936 11.8525 8.30712 12.2924 8.42135L12.6964 6.79017ZM17.6062 9.80126C18.0461 9.91549 18.4932 9.64294 18.6047 9.19251C18.7163 8.74208 18.4501 8.28432 18.0102 8.17008L17.6062 9.80126ZM12.2924 8.42135L17.6062 9.80126L18.0102 8.17008L12.6964 6.79017L12.2924 8.42135Z" fill="white"/>
<path d="M11.6239 11.1323C11.1841 11.0174 10.7367 11.2892 10.6245 11.7395C10.5123 12.1898 10.7778 12.6479 11.2175 12.7628L11.6239 11.1323ZM14.3949 13.593C14.8346 13.7079 15.2821 13.436 15.3943 12.9858C15.5065 12.5355 15.241 12.0773 14.8012 11.9624L14.3949 13.593ZM11.2175 12.7628L14.3949 13.593L14.8012 11.9624L11.6239 11.1323L11.2175 12.7628Z" fill="white"/>
</svg>
