<svg width="134" height="32" viewBox="0 0 134 32" fill="none" xmlns="http://www.w3.org/2000/svg">
<g clip-path="url(#clip0_0_222)">
<path d="M50.2638 7.73779V24.7031H46.8911L39.3226 13.5465V24.6826H36V7.73779H39.3727L46.9413 18.8738V7.73779H50.2638Z" fill="white"/>
<path d="M56.9592 10.9341V14.7452H61.7975V17.9415H56.9592V24.7031H53.6367V7.73779H62.7611V10.9341H56.9592Z" fill="white"/>
<path d="M76.1115 10.9341H71.8254V24.7031H68.5028V10.9341H64.2065V7.73779H76.1115V10.9341Z" fill="white"/>
<path d="M76.2822 16.415H83.3088V19.4885H76.2822V16.415Z" fill="white"/>
<path d="M97.9842 20.1032C97.9932 20.7238 97.8774 21.3397 97.6439 21.9128C97.4104 22.4859 97.0642 23.004 96.6267 23.4352C96.1893 23.8663 95.6698 24.2012 95.1005 24.4193C94.5311 24.6374 93.9239 24.734 93.3165 24.7031H86.4004V7.73783H92.7344C93.3052 7.7129 93.8751 7.80632 94.4095 8.01252C94.9439 8.21873 95.4319 8.53341 95.8438 8.93751C96.2557 9.34162 96.5829 9.8268 96.8059 10.3637C97.0289 10.9005 97.1429 11.478 97.141 12.0611C97.158 12.7798 96.9921 13.4908 96.6596 14.1246C96.3271 14.7584 95.8393 15.2934 95.2438 15.6775C96.0873 16.0433 96.8015 16.6629 97.2911 17.4536C97.7807 18.2444 98.0225 19.1687 97.9842 20.1032ZM89.6226 10.7907V14.5711H91.8711C92.1101 14.5711 92.3467 14.5227 92.5672 14.4287C92.7878 14.3348 92.9878 14.1972 93.1559 14.0237C93.3239 13.8503 93.4565 13.6446 93.5461 13.4185C93.6358 13.1924 93.6805 12.9504 93.6779 12.7065C93.6847 12.4615 93.6428 12.2176 93.5547 11.9896C93.4666 11.7616 93.3341 11.5542 93.1652 11.3799C92.9963 11.2056 92.7945 11.0681 92.5721 10.9756C92.3497 10.8832 92.1112 10.8377 91.8711 10.842L89.6226 10.7907ZM94.5612 19.5193C94.571 19.239 94.5243 18.9596 94.424 18.6985C94.3236 18.4374 94.1718 18.2001 93.9779 18.0013C93.7841 17.8025 93.5523 17.6464 93.2969 17.5427C93.0416 17.4391 92.7681 17.39 92.4935 17.3986H89.6226V21.6604H92.4935C92.7699 21.6692 93.0452 21.6195 93.3019 21.5146C93.5587 21.4097 93.7914 21.2518 93.9855 21.0507C94.1797 20.8497 94.331 20.6099 94.4301 20.3463C94.5292 20.0828 94.5738 19.8013 94.5612 19.5193Z" fill="white"/>
<path d="M105.191 21.7422V24.6619H99.9814V7H103.113V21.7422H105.191Z" fill="white"/>
<path d="M106.245 18.4333C106.211 17.0932 106.57 15.7731 107.275 14.6419C107.979 13.5107 108.999 12.6196 110.202 12.0826C111.406 11.5456 112.739 11.387 114.031 11.6271C115.323 11.8672 116.516 12.4951 117.457 13.4305C118.398 14.366 119.044 15.5665 119.313 16.8786C119.582 18.1908 119.462 19.555 118.967 20.7969C118.473 22.0389 117.626 23.1021 116.537 23.8508C115.447 24.5995 114.164 24.9997 112.85 25.0001C111.989 25.0306 111.131 24.8829 110.328 24.5659C109.524 24.2489 108.792 23.7691 108.175 23.1555C107.557 22.542 107.068 21.8073 106.737 20.9957C106.405 20.1841 106.238 19.3125 106.245 18.4333ZM116.223 18.4333C116.217 17.7538 116.014 17.0913 115.64 16.5293C115.266 15.9673 114.737 15.5309 114.12 15.2751C113.504 15.0192 112.826 14.9554 112.174 15.0917C111.522 15.2279 110.924 15.5582 110.455 16.0408C109.986 16.5234 109.668 17.1368 109.54 17.8037C109.413 18.4705 109.481 19.1611 109.737 19.7883C109.993 20.4155 110.426 20.9513 110.98 21.3282C111.534 21.7051 112.185 21.9062 112.85 21.9062C113.299 21.9161 113.744 21.8329 114.16 21.6615C114.575 21.4901 114.952 21.2341 115.268 20.9092C115.583 20.5842 115.831 20.1972 115.995 19.7715C116.159 19.3459 116.237 18.8905 116.223 18.4333Z" fill="white"/>
<path d="M120.94 18.433C121.002 16.8056 121.636 15.2554 122.728 14.0674C123.819 12.8794 125.294 12.1333 126.881 11.9663C128.469 11.7993 130.062 12.2227 131.367 13.1585C132.673 14.0943 133.605 15.4798 133.99 17.0602H130.667C130.357 16.3268 129.808 15.7251 129.113 15.3566C128.419 14.9881 127.621 14.8753 126.854 15.0371C126.088 15.199 125.399 15.6256 124.905 16.2452C124.411 16.8647 124.141 17.6392 124.141 18.4381C124.141 19.2371 124.411 20.0116 124.905 20.6311C125.399 21.2506 126.088 21.6772 126.854 21.8391C127.621 22.0009 128.419 21.8881 129.113 21.5195C129.808 21.151 130.357 20.5494 130.667 19.816H133.99C133.604 21.397 132.672 22.7826 131.365 23.7182C130.058 24.6537 128.464 25.0763 126.877 24.908C125.289 24.7397 123.814 23.992 122.723 22.8023C121.633 21.6127 121 20.0611 120.94 18.433Z" fill="white"/>
</g>
<g clip-path="url(#clip1_0_222)">
<path d="M13.856 3.99886V8.00103L17.3217 6.00169V1.99951L13.856 3.99886Z" fill="#2129DB"/>
<path d="M13.8563 3.99869L17.3221 1.99935L13.8563 0L10.394 1.99935L13.8563 3.99869Z" fill="#00FFBB"/>
<path d="M10.394 6.00169V1.99951L13.8563 3.99886V8.00103L10.394 6.00169Z" fill="#0A1393"/>
<path d="M10.394 6.00136V10.0001L13.8563 8.00071V3.99854L10.394 6.00136Z" fill="#2129DB"/>
<path d="M10.394 6.00169L13.8563 3.99886L10.394 1.99951L6.92822 3.99886L10.394 6.00169Z" fill="#00FFBB"/>
<path d="M6.92822 8.00071V3.99854L10.394 6.00136V10.0001L6.92822 8.00071Z" fill="#0A1393"/>
<path d="M17.3218 6.00136V10.0001L20.7841 8.00071V3.99854L17.3218 6.00136Z" fill="#2129DB"/>
<path d="M17.3217 6.00169L20.784 3.99886L17.3217 1.99951L13.856 3.99886L17.3217 6.00169Z" fill="#2F37FF"/>
<path d="M13.856 8.00071V3.99854L17.3217 6.00136V10.0001L13.856 8.00071Z" fill="#0A1393"/>
<path d="M3.46582 21.9998V26.002L6.9281 24.0027V20.0005L3.46582 21.9998Z" fill="#006B7A"/>
<path d="M3.46577 21.9997L6.92805 20.0003L3.46577 18.001L0 20.0003L3.46577 21.9997Z" fill="#2F37FF"/>
<path d="M0 24.0027V20.0005L3.46577 21.9998V26.002L0 24.0027Z" fill="#00A57E"/>
<path d="M3.46582 18.0013V22L6.9281 20.0007V16.002L3.46582 18.0013Z" fill="#006B7A"/>
<path d="M3.46577 18.0011L6.92805 16.0018L3.46577 14.0024L0 16.0018L3.46577 18.0011Z" fill="#2F37FF"/>
<path d="M0 20.0007V16.002L3.46577 18.0013V22L0 20.0007Z" fill="#00A57E"/>
<path d="M3.46582 14.0023V18.001L6.9281 16.0017V11.9995L3.46582 14.0023Z" fill="#2129DB"/>
<path d="M3.46577 14.0022L6.92805 11.9993L3.46577 10L0 11.9993L3.46577 14.0022Z" fill="#2F37FF"/>
<path d="M0 16.0017V11.9995L3.46577 14.0023V18.001L0 16.0017Z" fill="#00A57E"/>
<path d="M17.3218 26.0018V30.0005L20.7841 28.0011V24.0024L17.3218 26.0018Z" fill="#2129DB"/>
<path d="M17.3217 26.0022L20.784 24.0028L17.3217 22L13.856 24.0028L17.3217 26.0022Z" fill="#2F37FF"/>
<path d="M13.856 28.0011V24.0024L17.3217 26.0018V30.0005L13.856 28.0011Z" fill="#0A1393"/>
<path d="M13.856 24.0028V28.0015L17.3217 26.0022V22L13.856 24.0028Z" fill="#2129DB"/>
<path d="M13.8563 24.0027L17.3221 21.9998L13.8563 20.0005L10.394 21.9998L13.8563 24.0027Z" fill="#2F37FF"/>
<path d="M10.394 26.0022V22L13.8563 24.0028V28.0015L10.394 26.0022Z" fill="#0A1393"/>
<path d="M17.3218 14.0023V18.001L20.7841 16.0017V11.9995L17.3218 14.0023Z" fill="#2129DB"/>
<path d="M17.3217 14.0022L20.784 11.9993L17.3217 10L13.856 11.9993L17.3217 14.0022Z" fill="#2F37FF"/>
<path d="M13.856 16.0017V11.9995L17.3217 14.0023V18.001L13.856 16.0017Z" fill="#0A1393"/>
<path d="M6.92822 16.0018V20.0005L10.394 18.0011V14.0024L6.92822 16.0018Z" fill="#2129DB"/>
<path d="M6.9281 16.0017L10.3939 14.0023L6.9281 11.9995L3.46582 14.0023L6.9281 16.0017Z" fill="#2F37FF"/>
<path d="M3.46582 18.0011V14.0024L6.9281 16.0018V20.0005L3.46582 18.0011Z" fill="#00A57E"/>
<path d="M10.394 26.0018V30.0005L13.8563 28.0011V24.0024L10.394 26.0018Z" fill="#2129DB"/>
<path d="M10.394 26.0022L13.8563 24.0028L10.394 22L6.92822 24.0028L10.394 26.0022Z" fill="#2F37FF"/>
<path d="M6.92822 28.0011V24.0024L10.394 26.0018V30.0005L6.92822 28.0011Z" fill="#00A57E"/>
<path d="M10.394 21.9998V26.002L13.8563 24.0027V20.0005L10.394 21.9998Z" fill="#2129DB"/>
<path d="M10.394 21.9997L13.8563 20.0003L10.394 18.001L6.92822 20.0003L10.394 21.9997Z" fill="#2F37FF"/>
<path d="M6.92822 24.0027V20.0005L10.394 21.9998V26.002L6.92822 24.0027Z" fill="#00A57E"/>
<path d="M10.394 18.0013V22L13.8563 20.0007V16.002L10.394 18.0013Z" fill="#2129DB"/>
<path d="M10.394 18.0011L13.8563 16.0018L10.394 14.0024L6.92822 16.0018L10.394 18.0011Z" fill="#2F37FF"/>
<path d="M6.92822 20.0007V16.002L10.394 18.0013V22L6.92822 20.0007Z" fill="#00A57E"/>
<path d="M6.92822 8.00081V11.9995L10.394 10.0002V6.00146L6.92822 8.00081Z" fill="#006B7A"/>
<path d="M6.9281 8.00071L10.3939 6.00136L6.9281 3.99854L3.46582 6.00136L6.9281 8.00071Z" fill="#00FFBB"/>
<path d="M3.46582 10.0002V6.00146L6.9281 8.00081V11.9995L3.46582 10.0002Z" fill="#0A1393"/>
<path d="M13.856 8.00081V11.9995L17.3217 10.0002V6.00146L13.856 8.00081Z" fill="#2129DB"/>
<path d="M13.8563 8.00071L17.3221 6.00136L13.8563 3.99854L10.394 6.00136L13.8563 8.00071Z" fill="#00FFBB"/>
<path d="M10.394 10.0002V6.00146L13.8563 8.00081V11.9995L10.394 10.0002Z" fill="#00A57E"/>
<path d="M20.7842 8.00081V11.9995L24.2499 10.0002V6.00146L20.7842 8.00081Z" fill="#2129DB"/>
<path d="M20.7841 8.00071L24.2498 6.00136L20.7841 3.99854L17.3218 6.00136L20.7841 8.00071Z" fill="#2F37FF"/>
<path d="M17.3218 10.0002V6.00146L20.7841 8.00081V11.9995L17.3218 10.0002Z" fill="#0A1393"/>
<path d="M17.3218 10.0003V14.0025L20.7841 11.9997V8.00098L17.3218 10.0003Z" fill="#2129DB"/>
<path d="M17.3217 10.0002L20.784 8.00081L17.3217 6.00146L13.856 8.00081L17.3217 10.0002Z" fill="#2F37FF"/>
<path d="M13.856 11.9997V8.00098L17.3217 10.0003V14.0025L13.856 11.9997Z" fill="#0A1393"/>
<path d="M3.46582 10.0003V14.0025L6.9281 11.9997V8.00098L3.46582 10.0003Z" fill="#2129DB"/>
<path d="M3.46577 10.0002L6.92805 8.00081L3.46577 6.00146L0 8.00081L3.46577 10.0002Z" fill="#2F37FF"/>
<path d="M0 11.9997V8.00098L3.46577 10.0003V14.0025L0 11.9997Z" fill="#0A1393"/>
<path d="M6.92822 11.9993V16.0015L10.394 14.0022V10L6.92822 11.9993Z" fill="#2129DB"/>
<path d="M6.9281 11.9997L10.3939 10.0003L6.9281 8.00098L3.46582 10.0003L6.9281 11.9997Z" fill="#2F37FF"/>
<path d="M3.46582 14.0022V10L6.9281 11.9993V16.0015L3.46582 14.0022Z" fill="#0A1393"/>
<path d="M13.856 11.9993V16.0015L17.3217 14.0022V10L13.856 11.9993Z" fill="#2129DB"/>
<path d="M13.8563 11.9997L17.3221 10.0003L13.8563 8.00098L10.394 10.0003L13.8563 11.9997Z" fill="#2F37FF"/>
<path d="M10.394 14.0022V10L13.8563 11.9993V16.0015L10.394 14.0022Z" fill="#0A1393"/>
<path d="M10.394 14.0023V18.001L13.8563 16.0017V11.9995L10.394 14.0023Z" fill="#2129DB"/>
<path d="M10.394 14.0022L13.8563 11.9993L10.394 10L6.92822 11.9993L10.394 14.0022Z" fill="#2F37FF"/>
<path d="M6.92822 16.0017V11.9995L10.394 14.0023V18.001L6.92822 16.0017Z" fill="#0A1393"/>
<path d="M24.25 18.0013V22L27.7158 20.0007V16.002L24.25 18.0013Z" fill="#2129DB"/>
<path d="M24.2499 18.0011L27.7157 16.0018L24.2499 14.0024L20.7842 16.0018L24.2499 18.0011Z" fill="#2F37FF"/>
<path d="M20.7842 20.0007V16.002L24.2499 18.0013V22L20.7842 20.0007Z" fill="#0A1393"/>
<path d="M24.25 14.0023V18.001L27.7158 16.0017V11.9995L24.25 14.0023Z" fill="#2129DB"/>
<path d="M24.2499 14.0022L27.7157 11.9993L24.2499 10L20.7842 11.9993L24.2499 14.0022Z" fill="#2F37FF"/>
<path d="M20.7842 16.0017V11.9995L24.2499 14.0023V18.001L20.7842 16.0017Z" fill="#0A1393"/>
<path d="M24.25 10.0003V14.0025L27.7158 11.9997V8.00098L24.25 10.0003Z" fill="url(#paint0_linear_0_222)"/>
<path d="M24.2499 10.0002L27.7157 8.00081L24.2499 6.00146L20.7842 8.00081L24.2499 10.0002Z" fill="#00FFBB"/>
<path d="M20.7842 11.9997V8.00098L24.2499 10.0003V14.0025L20.7842 11.9997Z" fill="#0A1393"/>
<path d="M20.7842 24.0028V28.0015L24.2499 26.0022V22L20.7842 24.0028Z" fill="#2129DB"/>
<path d="M20.7841 24.0027L24.2498 21.9998L20.7841 20.0005L17.3218 21.9998L20.7841 24.0027Z" fill="#2F37FF"/>
<path d="M17.3218 26.0022V22L20.7841 24.0028V28.0015L17.3218 26.0022Z" fill="#0A1393"/>
<path d="M20.7842 20.0003V24.0025L24.2499 21.9997V18.001L20.7842 20.0003Z" fill="url(#paint1_linear_0_222)"/>
<path d="M20.7841 20.0006L24.2498 18.0013L20.7841 16.002L17.3218 18.0013L20.7841 20.0006Z" fill="#006B7A"/>
<path d="M17.3218 21.9997V18.001L20.7841 20.0003V24.0025L17.3218 21.9997Z" fill="#0A1393"/>
<path d="M20.7842 11.9993V16.0015L24.2499 14.0022V10L20.7842 11.9993Z" fill="url(#paint2_linear_0_222)"/>
<path d="M20.7841 11.9997L24.2498 10.0003L20.7841 8.00098L17.3218 10.0003L20.7841 11.9997Z" fill="#00FFBB"/>
<path d="M17.3218 14.0022V10L20.7841 11.9993V16.0015L17.3218 14.0022Z" fill="#0A1393"/>
<path d="M17.3218 26.0018V30.0005L20.7841 28.0011V24.0024L17.3218 26.0018Z" fill="url(#paint3_linear_0_222)"/>
<path d="M17.3217 26.0022L20.784 24.0028L17.3217 22L13.856 24.0028L17.3217 26.0022Z" fill="#2F37FF"/>
<path d="M13.856 28.0011V24.0024L17.3217 26.0018V30.0005L13.856 28.0011Z" fill="#0A1393"/>
<path d="M17.3218 21.9998V26.002L20.7841 24.0027V20.0005L17.3218 21.9998Z" fill="url(#paint4_linear_0_222)"/>
<path d="M17.3217 21.9997L20.784 20.0003L17.3217 18.001L13.856 20.0003L17.3217 21.9997Z" fill="#2F37FF"/>
<path d="M13.856 24.0027V20.0005L17.3217 21.9998V26.002L13.856 24.0027Z" fill="#0A1393"/>
<path d="M17.3218 18.0013V22L20.7841 20.0007V16.002L17.3218 18.0013Z" fill="url(#paint5_linear_0_222)"/>
<path d="M17.3217 18.0011L20.784 16.0018L17.3217 14.0024L13.856 16.0018L17.3217 18.0011Z" fill="#2F37FF"/>
<path d="M13.856 20.0007V16.002L17.3217 18.0013V22L13.856 20.0007Z" fill="#00A57E"/>
<path d="M17.3218 14.0023V18.001L20.7841 16.0017V11.9995L17.3218 14.0023Z" fill="url(#paint6_linear_0_222)"/>
<path d="M17.3217 14.0022L20.784 11.9993L17.3217 10L13.856 11.9993L17.3217 14.0022Z" fill="#00FFBB"/>
<path d="M13.856 16.0017V11.9995L17.3217 14.0023V18.001L13.856 16.0017Z" fill="#00A57E"/>
<path d="M13.856 28.0013V32.0035L17.3217 30.0006V26.002L13.856 28.0013Z" fill="#2129DB"/>
<path d="M13.8563 28.0011L17.3221 26.0018L13.8563 24.0024L10.394 26.0018L13.8563 28.0011Z" fill="#2F37FF"/>
<path d="M10.394 30.0006V26.002L13.8563 28.0013V32.0035L10.394 30.0006Z" fill="#0A1393"/>
<path d="M13.856 24.0028V28.0015L17.3217 26.0022V22L13.856 24.0028Z" fill="#2129DB"/>
<path d="M13.8563 24.0027L17.3221 21.9998L13.8563 20.0005L10.394 21.9998L13.8563 24.0027Z" fill="#2F37FF"/>
<path d="M10.394 26.0022V22L13.8563 24.0028V28.0015L10.394 26.0022Z" fill="#0A1393"/>
<path d="M13.856 20.0003V24.0025L17.3217 21.9997V18.001L13.856 20.0003Z" fill="#2129DB"/>
<path d="M13.8563 20.0006L17.3221 18.0013L13.8563 16.002L10.394 18.0013L13.8563 20.0006Z" fill="#2F37FF"/>
<path d="M10.394 21.9997V18.001L13.8563 20.0003V24.0025L10.394 21.9997Z" fill="#0A1393"/>
</g>
<defs>
<linearGradient id="paint0_linear_0_222" x1="26.4165" y1="10.5785" x2="16.5452" y2="20.1468" gradientUnits="userSpaceOnUse">
<stop stop-color="#00FFBB"/>
<stop offset="1" stop-color="#00C1FF"/>
</linearGradient>
<linearGradient id="paint1_linear_0_222" x1="29.736" y1="14.0058" x2="19.8646" y2="23.5741" gradientUnits="userSpaceOnUse">
<stop stop-color="#00FFBB"/>
<stop offset="1" stop-color="#00C1FF"/>
</linearGradient>
<linearGradient id="paint2_linear_0_222" x1="25.7373" y1="9.87809" x2="15.8659" y2="19.4464" gradientUnits="userSpaceOnUse">
<stop stop-color="#00FFBB"/>
<stop offset="1" stop-color="#00C1FF"/>
</linearGradient>
<linearGradient id="paint3_linear_0_222" x1="31.056" y1="15.3676" x2="21.1846" y2="24.9359" gradientUnits="userSpaceOnUse">
<stop stop-color="#00FFBB"/>
<stop offset="1" stop-color="#00C1FF"/>
</linearGradient>
<linearGradient id="paint4_linear_0_222" x1="29.0566" y1="13.3058" x2="19.1853" y2="22.8741" gradientUnits="userSpaceOnUse">
<stop stop-color="#00FFBB"/>
<stop offset="1" stop-color="#00C1FF"/>
</linearGradient>
<linearGradient id="paint5_linear_0_222" x1="27.0573" y1="11.2404" x2="17.1859" y2="20.8087" gradientUnits="userSpaceOnUse">
<stop stop-color="#00FFBB"/>
<stop offset="1" stop-color="#00C1FF"/>
</linearGradient>
<linearGradient id="paint6_linear_0_222" x1="25.0579" y1="9.17813" x2="15.1866" y2="18.7464" gradientUnits="userSpaceOnUse">
<stop stop-color="#00FFBB"/>
<stop offset="1" stop-color="#00C1FF"/>
</linearGradient>
<clipPath id="clip0_0_222">
<rect width="98" height="18" fill="white" transform="translate(36 7)"/>
</clipPath>
<clipPath id="clip1_0_222">
<rect width="27.7157" height="32" fill="white"/>
</clipPath>
</defs>
</svg>
