<svg width="56" height="36" viewBox="0 0 56 36" fill="none" xmlns="http://www.w3.org/2000/svg">
<ellipse cx="23.5274" cy="15.0951" rx="23.5274" ry="15.0951" fill="#788EBA"/>
<rect x="35.851" y="15.8139" width="20.149" height="20.149" rx="10" fill="#26DC43"/>
<path d="M44.792 28.9109C44.6919 28.9095 44.5959 28.8708 44.5228 28.8023L41.8783 26.1577C41.818 26.0843 41.7872 25.9911 41.7919 25.8963C41.7965 25.8014 41.8363 25.7117 41.9035 25.6446C41.9706 25.5774 42.0603 25.5377 42.1552 25.533C42.25 25.5283 42.3432 25.5591 42.4166 25.6194L44.792 27.9995L49.8119 22.9748C49.8853 22.9146 49.9785 22.8838 50.0734 22.8884C50.1682 22.8931 50.2579 22.9329 50.3251 23C50.3922 23.0672 50.432 23.1569 50.4367 23.2517C50.4413 23.3466 50.4105 23.4398 50.3503 23.5132L45.0612 28.8023C44.9881 28.8708 44.8921 28.9095 44.792 28.9109Z" fill="#E2E7E9"/>
</svg>
