<svg width="24" height="24" viewBox="0 0 24 24" fill="none" xmlns="http://www.w3.org/2000/svg">
<path d="M12.1328 12.8704L12.0144 13.6991C12.0631 13.7061 12.1122 13.7087 12.1613 13.7071L12.1328 12.8704ZM11.8649 12.8704L11.8364 13.7071C11.8806 13.7086 11.9249 13.7066 11.9688 13.7011L11.8649 12.8704ZM15.6602 9.22021L16.4974 9.22494V9.22021H15.6602ZM12.2512 12.0416C12.09 12.0185 11.9141 12.0205 11.7611 12.0396L11.9688 13.7011C11.9767 13.7001 11.9893 13.6992 12.0031 13.6992C12.0094 13.6992 12.0142 13.6994 12.0171 13.6996C12.0202 13.6998 12.0192 13.6998 12.0144 13.6991L12.2512 12.0416ZM11.8934 12.0337C10.3785 11.982 9.17476 10.7434 9.17476 9.22021H7.50037C7.50037 11.6486 9.42213 13.6248 11.8364 13.7071L11.8934 12.0337ZM9.17476 9.22021C9.17476 7.66049 10.4313 6.39609 11.9989 6.39609V4.72171C9.50327 4.72171 7.50037 6.73909 7.50037 9.22021H9.17476ZM11.9989 6.39609C13.5569 6.39609 14.823 7.66216 14.823 9.22021H16.4974C16.4974 6.73743 14.4817 4.72171 11.9989 4.72171V6.39609ZM14.823 9.21548C14.8144 10.7466 13.615 11.9822 12.1043 12.0337L12.1613 13.7071C14.5799 13.6246 16.4837 11.6454 16.4974 9.22494L14.823 9.21548Z" fill="#93989A"/>
<path d="M19.5236 20.2378L20.0889 20.8552C20.2851 20.6757 20.3842 20.4136 20.3561 20.1493L19.5236 20.2378ZM4.47647 20.2378L3.64397 20.1493C3.61585 20.4136 3.71498 20.6757 3.91107 20.8552L4.47647 20.2378ZM6.45224 17.3579L5.98901 16.6605L5.98485 16.6633L6.45224 17.3579ZM17.5478 17.3579L18.0152 16.6633L18.0134 16.6621L17.5478 17.3579ZM18.9582 19.6204C17.1194 21.3042 14.6847 22.3252 12 22.3252V23.9996C15.1198 23.9996 17.9539 22.8104 20.0889 20.8552L18.9582 19.6204ZM12 22.3252C9.3153 22.3252 6.88061 21.3042 5.04186 19.6204L3.91107 20.8552C6.04619 22.8104 8.88021 23.9996 12 23.9996V22.3252ZM5.30896 20.3264C5.3879 19.5843 5.87331 18.7565 6.91962 18.0525L5.98485 16.6633C4.64238 17.5667 3.78828 18.7928 3.64397 20.1493L5.30896 20.3264ZM6.91545 18.0552C8.27889 17.1496 10.1231 16.6714 12.0084 16.6714C13.8939 16.6714 15.7312 17.1497 17.0822 18.0537L18.0134 16.6621C16.3282 15.5345 14.147 14.997 12.0084 14.997C9.86954 14.997 7.68412 15.5346 5.98902 16.6605L6.91545 18.0552ZM17.0804 18.0525C18.1267 18.7565 18.6121 19.5843 18.6911 20.3264L20.3561 20.1493C20.2117 18.7928 19.3577 17.5667 18.0152 16.6633L17.0804 18.0525Z" fill="#93989A"/>
<path d="M22.3251 11.9997C22.3251 17.7022 17.7022 22.3251 11.9997 22.3251V23.9995C18.627 23.9995 23.9995 18.627 23.9995 11.9997H22.3251ZM11.9997 22.3251C6.2972 22.3251 1.67438 17.7022 1.67438 11.9997H0C0 18.627 5.37246 23.9995 11.9997 23.9995V22.3251ZM1.67438 11.9997C1.67438 6.2972 6.2972 1.67438 11.9997 1.67438V0C5.37246 0 0 5.37246 0 11.9997H1.67438ZM11.9997 1.67438C17.7022 1.67438 22.3251 6.2972 22.3251 11.9997H23.9995C23.9995 5.37246 18.627 0 11.9997 0V1.67438Z" fill="#93989A"/>
</svg>
