<svg width="24" height="18" viewBox="0 0 24 18" fill="none" xmlns="http://www.w3.org/2000/svg">
<path d="M15.3383 15.4362C14.8759 15.4362 14.5011 15.9074 14.5011 16.4887C14.5011 17.0699 14.8759 17.5411 15.3383 17.5411V15.4362ZM15.3383 0C14.8759 0 14.5011 0.471205 14.5011 1.05247C14.5011 1.63373 14.8759 2.10494 15.3383 2.10494V0ZM15.3383 17.5411H17.0239V15.4362H15.3383V17.5411ZM17.0239 17.5411C20.8563 17.5411 24.0004 13.605 24.0004 8.77056H22.3261C22.3261 12.44 19.9336 15.4362 17.0239 15.4362V17.5411ZM24.0004 8.77056C24.0004 3.95261 20.8695 0 17.0239 0V2.10494C19.9427 2.10494 22.3261 5.11265 22.3261 8.77056H24.0004ZM17.0239 0H15.3383V2.10494H17.0239V0Z" fill="#93989A"/>
<path d="M8.65097 2.10494C9.11333 2.10494 9.48816 1.63373 9.48816 1.05247C9.48816 0.471205 9.11333 0 8.65097 0V2.10494ZM8.65097 17.5411C9.11333 17.5411 9.48816 17.0699 9.48816 16.4887C9.48816 15.9074 9.11333 15.4362 8.65097 15.4362V17.5411ZM8.65097 0H6.97658V2.10494H8.65097V0ZM6.97658 0C3.13197 0 0 3.93734 0 8.77056H1.67438C1.67438 5.09985 4.0567 2.10494 6.97658 2.10494V0ZM0 8.77056C0 13.5885 3.13098 17.5411 6.97658 17.5411V15.4362C4.05769 15.4362 1.67438 12.4285 1.67438 8.77056H0ZM6.97658 17.5411H8.65097V15.4362H6.97658V17.5411Z" fill="#93989A"/>
<path d="M7.53417 7.71821C7.0718 7.71821 6.69698 8.18942 6.69698 8.77068C6.69698 9.35194 7.0718 9.82315 7.53417 9.82315V7.71821ZM16.4642 9.82315C16.9266 9.82315 17.3014 9.35194 17.3014 8.77068C17.3014 8.18942 16.9266 7.71821 16.4642 7.71821V9.82315ZM7.53417 9.82315H16.4642V7.71821H7.53417V9.82315Z" fill="#93989A"/>
</svg>
