<svg width="22" height="22" viewBox="0 0 22 22" fill="none" xmlns="http://www.w3.org/2000/svg">
<path d="M19.9009 7.51305C17.9108 7.51305 17.0972 6.06886 18.0868 4.29747C18.6585 3.27075 18.3177 1.96195 17.3171 1.37525L15.415 0.258263C14.5464 -0.272025 13.4249 0.0438916 12.9081 0.935226L12.7872 1.1496C11.7976 2.92098 10.1704 2.92098 9.16982 1.1496L9.04888 0.935226C8.5541 0.0438916 7.43261 -0.272025 6.56401 0.258263L4.66188 1.37525C3.66133 1.96195 3.32049 3.28203 3.89223 4.30876C4.89277 6.06886 4.07914 7.51305 2.08905 7.51305C0.945569 7.51305 0 8.47208 0 9.65677V11.6425C0 12.8159 0.934574 13.7862 2.08905 13.7862C4.07914 13.7862 4.89277 15.2304 3.89223 17.0018C3.32049 18.0285 3.66133 19.3373 4.66188 19.924L6.56401 21.041C7.43261 21.5713 8.5541 21.2554 9.07087 20.3641L9.19181 20.1497C10.1814 18.3783 11.8086 18.3783 12.8092 20.1497L12.9301 20.3641C13.4469 21.2554 14.5684 21.5713 15.437 21.041L17.3391 19.924C18.3396 19.3373 18.6805 18.0173 18.1087 17.0018C17.1082 15.2304 17.9218 13.7862 19.9119 13.7862C21.0554 13.7862 22.001 12.8272 22.001 11.6425V9.65677C21.99 8.48336 21.0554 7.51305 19.9009 7.51305ZM10.995 14.3165C9.02689 14.3165 7.42162 12.6693 7.42162 10.6496C7.42162 8.63004 9.02689 6.98276 10.995 6.98276C12.9631 6.98276 14.5684 8.63004 14.5684 10.6496C14.5684 12.6693 12.9631 14.3165 10.995 14.3165Z" fill="#15161E"/>
</svg>
