<svg width="22" height="22" viewBox="0 0 22 22" fill="none" xmlns="http://www.w3.org/2000/svg">
<path d="M20.5556 18.7747C20.8859 19.0905 21.4214 19.0905 21.7516 18.7747C22.0819 18.459 22.0819 17.947 21.7516 17.6313L20.5556 18.7747ZM16.1697 12.2949C15.8394 11.9791 15.3039 11.9791 14.9736 12.2949C14.6433 12.6106 14.6433 13.1226 14.9736 13.4383L16.1697 12.2949ZM21.7516 17.6313L16.1697 12.2949L14.9736 13.4383L20.5556 18.7747L21.7516 17.6313Z" fill="#93989A"/>
<path d="M15.5723 12.8666L14.9743 12.2949L15.5723 12.8666ZM11.5804 16.6829L12.1784 17.2546L11.5804 16.6829ZM8.38906 16.6829L7.79101 17.2546H7.79102L8.38906 16.6829ZM3.60773 12.112L4.20576 11.5402V11.5402L3.60773 12.112ZM14.7717 1.4392L15.3697 0.867479V0.867476L14.7717 1.4392ZM19.553 6.01018L18.955 6.58191L19.553 6.01018ZM14.9743 12.2949L10.9823 16.1112L12.1784 17.2546L16.1703 13.4383L14.9743 12.2949ZM10.9823 16.1112C10.433 16.6363 9.53639 16.6363 8.9871 16.1112L7.79102 17.2546C9.00089 18.4112 10.9685 18.4112 12.1784 17.2546L10.9823 16.1112ZM8.9871 16.1112L4.20576 11.5402L3.00969 12.6836L7.79101 17.2546L8.9871 16.1112ZM4.20576 11.5402C3.65647 11.0151 3.65647 10.1579 4.20576 9.63279L3.00969 8.48934C1.79982 9.64598 1.79982 11.527 3.00969 12.6836L4.20576 11.5402ZM4.20576 9.63279L12.1784 2.01093L10.9823 0.867476L3.00969 8.48934L4.20576 9.63279ZM12.1784 2.01093C12.7277 1.4858 13.6243 1.4858 14.1736 2.01093L15.3697 0.867476C14.1598 -0.289159 12.1922 -0.289159 10.9823 0.867476L12.1784 2.01093ZM14.1736 2.01093L18.955 6.58191L20.151 5.43846L15.3697 0.867479L14.1736 2.01093ZM18.955 6.58191C19.5043 7.10704 19.5043 7.96421 18.955 8.48934L20.151 9.63279C21.3609 8.47615 21.3609 6.59509 20.151 5.43846L18.955 6.58191ZM18.955 8.48934L14.9743 12.2949L16.1703 13.4383L20.151 9.63279L18.955 8.48934Z" fill="#93989A"/>
<path d="M0.845753 20.0786C0.378656 20.0786 0 20.4406 0 20.8871C0 21.3337 0.378656 21.6957 0.845753 21.6957V20.0786ZM7.61178 21.6957C8.07887 21.6957 8.45753 21.3337 8.45753 20.8871C8.45753 20.4406 8.07887 20.0786 7.61178 20.0786V21.6957ZM0.845753 21.6957H7.61178V20.0786H0.845753V21.6957Z" fill="#93989A"/>
<path d="M6.58601 6.21452C6.25572 5.89876 5.72022 5.89876 5.38993 6.21452C5.05964 6.53028 5.05964 7.04222 5.38993 7.35797L6.58601 6.21452ZM13.3626 14.9798C13.6929 15.2956 14.2284 15.2956 14.5586 14.9798C14.8889 14.664 14.8889 14.1521 14.5586 13.8364L13.3626 14.9798ZM5.38993 7.35797L13.3626 14.9798L14.5586 13.8364L6.58601 6.21452L5.38993 7.35797Z" fill="#93989A"/>
</svg>
