<svg width="36" height="36" viewBox="0 0 36 36" fill="none" xmlns="http://www.w3.org/2000/svg">
<rect width="36" height="36" rx="18" fill="white"/>
<path d="M21.1372 13.9329L20.5496 13.3909L20.549 13.3915L21.1372 13.9329ZM13.756 21.5446L13.1678 21.0032L13.1662 21.0049L13.756 21.5446ZM13.1536 22.7972L12.3514 22.693L12.3497 22.7077L13.1536 22.7972ZM12.8209 25.6352L12.017 25.5457L12.0167 25.548L12.8209 25.6352ZM14.5022 27.1856L14.3659 26.4085L14.3647 26.4087L14.5022 27.1856ZM17.3971 26.7037L17.5333 27.4808L17.5387 27.48L17.3971 26.7037ZM18.6468 26.0468L18.0585 25.5054L18.0489 25.5157L18.6468 26.0468ZM26.028 18.4351L25.4404 17.8931L25.4399 17.8937L26.028 18.4351ZM25.8931 13.7927L26.4492 13.22L26.4477 13.2186L25.8931 13.7927ZM20.549 13.3915L13.1678 21.0032L14.3441 22.086L21.7253 14.4743L20.549 13.3915ZM13.1662 21.0049C12.9481 21.231 12.7677 21.5256 12.6372 21.7983C12.5061 22.0721 12.3927 22.3922 12.3515 22.693L13.9556 22.9014C13.9684 22.808 14.0169 22.6463 14.1038 22.4647C14.1913 22.2819 14.2851 22.1472 14.3457 22.0844L13.1662 21.0049ZM12.3497 22.7077L12.017 25.5457L13.6249 25.7246L13.9575 22.8866L12.3497 22.7077ZM12.0167 25.548C11.9344 26.2701 12.1563 26.9579 12.6699 27.4324C13.1842 27.9076 13.9018 28.0863 14.6396 27.9624L14.3647 26.4087C14.0596 26.4599 13.8782 26.3759 13.7834 26.2883C13.6879 26.2 13.5906 26.0249 13.6251 25.7222L12.0167 25.548ZM14.6384 27.9626L17.5333 27.4808L17.2609 25.9266L14.3659 26.4085L14.6384 27.9626ZM17.5387 27.48C17.8487 27.4263 18.1734 27.3003 18.4507 27.1559C18.7261 27.0124 19.0225 26.8155 19.2447 26.578L18.0489 25.5157C17.9924 25.576 17.8662 25.6725 17.6876 25.7655C17.5109 25.8576 17.3501 25.9112 17.2555 25.9276L17.5387 27.48ZM19.235 26.5882L26.6162 18.9765L25.4399 17.8937L18.0586 25.5055L19.235 26.5882ZM26.6156 18.9771C27.2985 18.2742 27.9168 17.4038 27.9916 16.3627C28.0693 15.2802 27.5487 14.2331 26.4492 13.22L25.3372 14.3655C26.2244 15.183 26.4097 15.8002 26.3772 16.2527C26.3418 16.7467 26.0341 17.2821 25.4404 17.8931L26.6156 18.9771ZM26.4477 13.2186C25.3514 12.2137 24.2518 11.7709 23.1496 11.9082C22.0896 12.0403 21.2327 12.6879 20.5496 13.3909L21.7248 14.4748C22.3183 13.864 22.8504 13.535 23.3548 13.4721C23.8168 13.4146 24.4569 13.5586 25.3387 14.3669L26.4477 13.2186Z" fill="#010101"/>
<path d="M20.7064 15.0831C20.6376 14.6529 20.2239 14.3585 19.7824 14.4255C19.3408 14.4925 19.0386 14.8956 19.1074 15.3258L20.7064 15.0831ZM24.7257 20.4998C25.1703 20.5434 25.567 20.2276 25.6118 19.7944C25.6566 19.3613 25.3325 18.9747 24.8878 18.9311L24.7257 20.4998ZM19.1074 15.3258C19.5511 18.1001 21.8621 20.2188 24.7257 20.4998L24.8878 18.9311C22.7526 18.7216 21.036 17.1439 20.7064 15.0831L19.1074 15.3258Z" fill="#010101"/>
</svg>
