<svg width="40" height="40" viewBox="0 0 40 40" fill="none" xmlns="http://www.w3.org/2000/svg">
<path fill-rule="evenodd" clip-rule="evenodd" d="M35.9717 10.6217C35.59 8.94834 34.46 7.62834 33.0234 7.17501C30.425 6.36334 20 6.36334 20 6.36334C20 6.36334 9.58004 6.36334 6.97671 7.17501C5.54504 7.62168 4.41504 8.94168 4.02837 10.6217C3.33337 13.6583 3.33337 20 3.33337 20C3.33337 20 3.33337 26.3417 4.02837 29.3783C4.41004 31.0517 5.54004 32.3717 6.97671 32.825C9.58004 33.6367 20 33.6367 20 33.6367C20 33.6367 30.425 33.6367 33.0234 32.825C34.455 32.3783 35.585 31.0583 35.9717 29.3783C36.6667 26.3417 36.6667 20 36.6667 20C36.6667 20 36.6667 13.6583 35.9717 10.6217Z" stroke="white" stroke-width="1.5" stroke-linecap="round" stroke-linejoin="round"/>
<path fill-rule="evenodd" clip-rule="evenodd" d="M16.67 25L25.33 20L16.67 15V25Z" stroke="white" stroke-width="1.5" stroke-linecap="round" stroke-linejoin="round"/>
</svg>
