<svg width="19" height="19" viewBox="0 0 19 19" fill="none" xmlns="http://www.w3.org/2000/svg">
<path fill-rule="evenodd" clip-rule="evenodd" d="M9.87053 1.61054L12.2429 0.842706C12.5146 0.754841 12.8087 0.766576 13.0725 0.875809C13.3363 0.985043 13.5526 1.18464 13.6827 1.43884L14.8165 3.65954C14.9316 3.88439 15.1146 4.06829 15.3403 4.18333L17.5331 5.30327C17.7954 5.43714 18.0013 5.66012 18.1139 5.93215C18.2265 6.20419 18.2385 6.50746 18.1476 6.78751L17.3893 9.13022C17.3118 9.37077 17.3118 9.62961 17.3893 9.87016L18.1572 12.2425C18.245 12.5142 18.2333 12.8083 18.1241 13.0721C18.0148 13.3359 17.8152 13.5522 17.561 13.6823L15.3403 14.8162C15.115 14.9313 14.9317 15.1146 14.8165 15.34L13.6818 17.5607C13.552 17.8151 13.3357 18.0149 13.0718 18.1242C12.8079 18.2335 12.5137 18.245 12.242 18.1568L9.86966 17.389C9.62911 17.3114 9.37027 17.3114 9.12972 17.389L6.75738 18.1568C6.48569 18.2447 6.1916 18.2329 5.92777 18.1237C5.66395 18.0145 5.44764 17.8149 5.31759 17.5607L4.18371 15.34C4.06856 15.1146 3.88527 14.9313 3.65991 14.8162L1.43922 13.6814C1.18476 13.5516 0.984947 13.3354 0.875677 13.0714C0.766406 12.8075 0.754848 12.5133 0.84308 12.2416L1.61091 9.86929C1.68849 9.62874 1.68849 9.36989 1.61091 9.12935L0.84308 6.75788C0.75523 6.48596 0.767063 6.19166 0.876456 5.92768C0.98585 5.66369 1.18566 5.44729 1.44009 5.31721L3.65991 4.18333C3.88564 4.06829 4.06866 3.88527 4.18371 3.65954L5.31846 1.43884C5.44865 1.18476 5.66497 0.985277 5.92875 0.876061C6.19253 0.766846 6.48655 0.755023 6.75825 0.842706L9.13059 1.61054C9.37027 1.68898 9.62999 1.68898 9.87053 1.61054V1.61054Z" stroke="white" stroke-width="1.5" stroke-linecap="round" stroke-linejoin="round"/>
<path d="M6.88537 12.1144L12.1146 6.88511" stroke="white" stroke-width="1.5" stroke-linecap="round" stroke-linejoin="round"/>
<path d="M7.3194 6.88512C7.23328 6.88546 7.1492 6.91131 7.07777 6.9594C7.00634 7.00749 6.95076 7.07567 6.91804 7.15533C6.88533 7.23499 6.87694 7.32255 6.89396 7.40697C6.91097 7.49138 6.95261 7.56887 7.01362 7.62964C7.07463 7.69041 7.15228 7.73174 7.23676 7.74841C7.32125 7.76508 7.40878 7.75635 7.4883 7.72332C7.56783 7.69029 7.63578 7.63443 7.68359 7.56281C7.7314 7.49118 7.75691 7.407 7.75691 7.32089C7.75691 7.26351 7.74558 7.20671 7.72358 7.15372C7.70157 7.10074 7.66931 7.05262 7.62866 7.01213C7.58801 6.97164 7.53977 6.93958 7.4867 6.91779C7.43362 6.89599 7.37677 6.88489 7.3194 6.88512Z" stroke="white" stroke-width="1.5" stroke-linecap="round" stroke-linejoin="round"/>
<path d="M11.6769 11.2429C11.5908 11.2433 11.5068 11.2691 11.4353 11.3172C11.3639 11.3653 11.3083 11.4335 11.2756 11.5131C11.2429 11.5928 11.2345 11.6804 11.2515 11.7648C11.2685 11.8492 11.3102 11.9267 11.3712 11.9874C11.4322 12.0482 11.5098 12.0895 11.5943 12.1062C11.6788 12.1229 11.7663 12.1142 11.8459 12.0811C11.9254 12.0481 11.9933 11.9922 12.0411 11.9206C12.0889 11.849 12.1145 11.7648 12.1145 11.6787C12.1145 11.6213 12.1031 11.5645 12.0811 11.5115C12.0591 11.4585 12.0269 11.4104 11.9862 11.3699C11.9456 11.3294 11.8973 11.2974 11.8442 11.2756C11.7912 11.2538 11.7343 11.2427 11.6769 11.2429Z" stroke="white" stroke-width="1.5" stroke-linecap="round" stroke-linejoin="round"/>
</svg>
