<svg width="22" height="17" viewBox="0 0 22 17" fill="none" xmlns="http://www.w3.org/2000/svg">
<path d="M10.9726 16.2656C11.5801 16.2656 12.0725 15.8103 12.0725 15.2486C12.0725 14.687 11.5801 14.2317 10.9726 14.2317C10.3652 14.2317 9.8728 14.687 9.8728 15.2486C9.8728 15.8103 10.3652 16.2656 10.9726 16.2656Z" fill="#BABBC3"/>
<path d="M10.9727 10.1639C9.54919 10.1638 8.18113 10.6742 7.15621 11.5876C6.94619 11.7751 6.8253 12.032 6.82015 12.3019C6.81499 12.5717 6.92599 12.8324 7.12872 13.0266C7.33145 13.2208 7.6093 13.3326 7.90116 13.3374C8.19302 13.3421 8.47498 13.2395 8.685 13.052C9.30961 12.5232 10.1258 12.2299 10.9727 12.2299C11.8196 12.2299 12.6358 12.5232 13.2604 13.052C13.4704 13.2395 13.7524 13.3421 14.0442 13.3374C14.3361 13.3326 14.6139 13.2208 14.8167 13.0266C15.0194 12.8324 15.1304 12.5717 15.1252 12.3019C15.1201 12.032 14.9992 11.7751 14.7892 11.5876C13.7642 10.6742 12.3962 10.1638 10.9727 10.1639ZM10.9727 5.079C9.6443 5.07981 8.32968 5.32783 7.10714 5.8083C5.8846 6.28877 4.77916 6.99186 3.85666 7.87567C3.75628 7.97383 3.67779 8.08931 3.62568 8.21552C3.57356 8.34172 3.54884 8.47619 3.55293 8.61123C3.55701 8.74627 3.58982 8.87924 3.64949 9.00256C3.70915 9.12588 3.7945 9.23712 3.90066 9.32994C4.11506 9.51739 4.40121 9.61841 4.69616 9.61078C4.84221 9.60701 4.98602 9.57667 5.11939 9.5215C5.25275 9.46633 5.37306 9.38742 5.47344 9.28926C6.19163 8.60028 7.05267 8.05227 8.0051 7.67795C8.95753 7.30364 9.98179 7.11072 11.0167 7.11072C12.0516 7.11072 13.0758 7.30364 14.0283 7.67795C14.9807 8.05227 15.8417 8.60028 16.5599 9.28926C16.6618 9.38535 16.7833 9.46179 16.9173 9.51416C17.0513 9.56654 17.1953 9.59379 17.3408 9.59435C17.5558 9.59359 17.7657 9.53462 17.9448 9.42473C18.1239 9.31483 18.2642 9.15882 18.3485 8.97598C18.4327 8.79315 18.4572 8.59149 18.4188 8.39594C18.3805 8.20039 18.281 8.01952 18.1327 7.87567C17.2051 6.98692 16.0925 6.28097 14.862 5.80033C13.6315 5.3197 12.3085 5.07433 10.9727 5.079Z" fill="#BABBC3"/>
<path d="M21.6631 3.9908C18.793 1.43065 14.9606 0 10.9726 0C6.98463 0 3.1522 1.43065 0.282063 3.9908C0.09645 4.18164 -0.00425897 4.43032 0.000138151 4.68695C0.00453528 4.94358 0.113713 5.18918 0.305771 5.37448C0.497829 5.55979 0.758562 5.6711 1.03567 5.68608C1.31277 5.70105 1.58576 5.61859 1.79986 5.45524C4.26088 3.25566 7.5498 2.02613 10.9726 2.02613C14.3954 2.02613 17.6843 3.25566 20.1453 5.45524C20.3492 5.63695 20.6211 5.73895 20.9042 5.73999C21.0524 5.73947 21.1989 5.71127 21.335 5.6571C21.4711 5.60293 21.5939 5.52389 21.6961 5.42473C21.8967 5.23019 22.0057 4.97016 21.9996 4.70147C21.9934 4.43279 21.8724 4.17728 21.6631 3.9908Z" fill="#BABBC3"/>
</svg>
