<svg width="24" height="24" viewBox="0 0 24 24" fill="none" xmlns="http://www.w3.org/2000/svg">
<path d="M14.5 13.5L19.707 8.293C19.8946 8.10551 19.9999 7.85119 20 7.586V5C20 4.73478 19.8946 4.48043 19.7071 4.29289C19.5196 4.10536 19.2652 4 19 4H5C4.73478 4 4.48043 4.10536 4.29289 4.29289C4.10536 4.48043 4 4.73478 4 5V7.586C4 7.851 4.105 8.106 4.293 8.293L9.5 13.5" stroke="white" stroke-width="1.5" stroke-linecap="round" stroke-linejoin="round"/>
<path d="M9.5 13.5V19.749C9.5 20.562 10.264 21.159 11.053 20.962L13.553 20.337C13.8235 20.2694 14.0637 20.1133 14.2353 19.8935C14.4069 19.6737 14.5001 19.4028 14.5 19.124V13.5" stroke="white" stroke-width="1.5" stroke-linecap="round" stroke-linejoin="round"/>
</svg>
