<svg width="17" height="16" viewBox="0 0 17 16" fill="none" xmlns="http://www.w3.org/2000/svg">
<path d="M8.95958 15.1191L8.71046 14.3543L8.70295 14.3571L8.95958 15.1191ZM8.00348 15.1191L8.26011 14.357L8.25258 14.3543L8.00348 15.1191ZM8.48153 2.61817L7.86251 3.09995C8.00797 3.30523 8.23756 3.42624 8.48153 3.42624C8.7255 3.42624 8.95509 3.30523 9.10055 3.09995L8.48153 2.61817ZM8.70295 14.3571C8.68007 14.3655 8.59989 14.3838 8.48153 14.3838C8.36317 14.3838 8.28299 14.3655 8.2601 14.3571L7.74686 15.8811C7.98612 15.9696 8.25292 15.9999 8.48153 15.9999C8.71014 15.9999 8.97693 15.9696 9.21619 15.8811L8.70295 14.3571ZM8.25258 14.3543C7.24523 13.9939 5.54186 13.0266 4.10055 11.4789C2.66853 9.94125 1.5421 7.88469 1.5421 5.32522H0C0 8.42229 1.37177 10.8627 2.99695 12.6078C4.61284 14.3429 6.52569 15.4443 7.75438 15.8839L8.25258 14.3543ZM1.5421 5.32522C1.5421 3.27077 3.12039 1.61615 5.05808 1.61615V0C2.26153 0 0 2.38576 0 5.32522H1.5421ZM5.05808 1.61615C6.20588 1.61615 7.2222 2.19635 7.86251 3.09995L9.10055 2.13638C8.18334 0.842019 6.71689 0 5.05808 0V1.61615ZM9.10055 3.09995C9.74038 2.19701 10.7641 1.61615 11.905 1.61615V0C10.2546 0 8.78019 0.841355 7.86251 2.13638L9.10055 3.09995ZM11.905 1.61615C13.8427 1.61615 15.421 3.27077 15.421 5.32522H16.9631C16.9631 2.38576 14.7015 0 11.905 0V1.61615ZM15.421 5.32522C15.421 7.88469 14.2945 9.94125 12.8625 11.4789C11.4212 13.0266 9.71783 13.9939 8.71048 14.3543L9.20868 15.8839C10.4374 15.4443 12.3502 14.3429 13.9661 12.6078C15.5913 10.8627 16.9631 8.42229 16.9631 5.32522H15.421Z" fill="white"/>
</svg>
