<svg width="32" height="32" viewBox="0 0 32 32" fill="none" xmlns="http://www.w3.org/2000/svg">
<path d="M12.5 13C13.3284 13 14 12.3284 14 11.5C14 10.6716 13.3284 10 12.5 10C11.6716 10 11 10.6716 11 11.5C11 12.3284 11.6716 13 12.5 13Z" fill="white"/>
<path d="M26.0001 4H6.00012C5.46988 4.00061 4.96152 4.21151 4.58658 4.58646C4.21164 4.9614 4.00073 5.46975 4.00012 6V21.9968L4 22.0006L4.00012 26C4.00073 26.5302 4.21164 27.0386 4.58658 27.4135C4.96152 27.7885 5.46988 27.9994 6.00012 28H26.0001C26.5304 27.9994 27.0387 27.7885 27.4137 27.4135C27.7886 27.0386 27.9995 26.5302 28.0001 26V6C27.9995 5.46975 27.7886 4.9614 27.4137 4.58646C27.0387 4.21152 26.5304 4.00061 26.0001 4ZM22.4143 14C22.0389 13.6255 21.5303 13.4152 21.0001 13.4152C20.4698 13.4152 19.9612 13.6255 19.5858 14L14.0001 19.5858L11.4143 17C11.0389 16.6256 10.5303 16.4153 10.0001 16.4153C9.46984 16.4153 8.96125 16.6256 8.58582 17L6.00012 19.5856V6H26.0001L26.0009 17.5865L22.4143 14Z" fill="white"/>
</svg>
