<svg width="23" height="24" viewBox="0 0 23 24" fill="none" xmlns="http://www.w3.org/2000/svg">
<g clip-path="url(#clip0_0_3319)">
<path d="M11.5003 22C16.7931 22 21.0837 17.5228 21.0837 12C21.0837 6.47715 16.7931 2 11.5003 2C6.2076 2 1.91699 6.47715 1.91699 12C1.91699 17.5228 6.2076 22 11.5003 22Z" fill="#F0F0F0"/>
<path d="M3.89799 5.91211C3.14521 6.9341 2.57758 8.11203 2.24707 9.39168H7.23258L3.89799 5.91211Z" fill="#0052B4"/>
<path d="M20.753 9.39164C20.4225 8.11203 19.8548 6.9341 19.1021 5.91211L15.7676 9.39164H20.753Z" fill="#0052B4"/>
<path d="M2.24707 14.6089C2.57762 15.8885 3.14525 17.0664 3.89799 18.0884L7.23246 14.6089H2.24707Z" fill="#0052B4"/>
<path d="M17.3346 4.06746C16.3551 3.28195 15.2263 2.68965 14 2.34473V7.54695L17.3346 4.06746Z" fill="#0052B4"/>
<path d="M5.66602 19.9331C6.64542 20.7186 7.77427 21.3109 9.00057 21.6558V16.4536L5.66602 19.9331Z" fill="#0052B4"/>
<path d="M9.00053 2.34473C7.77424 2.68965 6.64539 3.28195 5.66602 4.06742L9.00053 7.54691V2.34473Z" fill="#0052B4"/>
<path d="M14 21.6558C15.2263 21.3109 16.3551 20.7186 17.3345 19.9331L14 16.4536V21.6558Z" fill="#0052B4"/>
<path d="M15.7676 14.6089L19.1021 18.0884C19.8548 17.0665 20.4225 15.8885 20.753 14.6089H15.7676Z" fill="#0052B4"/>
<path d="M21.0025 10.6957H12.7504H12.7504V2.08465C12.3412 2.02906 11.924 2 11.5003 2C11.0766 2 10.6595 2.02906 10.2503 2.08465V10.6956V10.6956H1.99811C1.94484 11.1226 1.91699 11.5579 1.91699 12C1.91699 12.4421 1.94484 12.8774 1.99811 13.3043H10.2503H10.2503V21.9154C10.6595 21.9709 11.0766 22 11.5003 22C11.924 22 12.3412 21.971 12.7503 21.9154V13.3044V13.3044H21.0025C21.0558 12.8774 21.0837 12.4421 21.0837 12C21.0837 11.5579 21.0558 11.1226 21.0025 10.6957Z" fill="#D80027"/>
<path d="M14 14.6089L18.2764 19.0713C18.4731 18.8661 18.6607 18.6516 18.8397 18.4293L15.1785 14.6089H14V14.6089Z" fill="#D80027"/>
<path d="M9.00008 14.6089H9.00001L4.72363 19.0712C4.92024 19.2764 5.1258 19.4722 5.33888 19.659L9.00008 15.8385V14.6089Z" fill="#D80027"/>
<path d="M8.99989 9.39117V9.39109L4.72348 4.92871C4.52679 5.13387 4.33917 5.34836 4.16016 5.5707L7.8214 9.39113H8.99989V9.39117Z" fill="#D80027"/>
<path d="M14 9.39151L18.2765 4.92908C18.0798 4.72385 17.8743 4.52807 17.6612 4.34131L14 8.16174V9.39151Z" fill="#D80027"/>
</g>
<defs>
<clipPath id="clip0_0_3319">
<rect width="19.1667" height="20" fill="white" transform="translate(1.91699 2)"/>
</clipPath>
</defs>
</svg>
