<svg width="14" height="22" viewBox="0 0 14 22" fill="none" xmlns="http://www.w3.org/2000/svg">
<path d="M5.20778 1.62545L1.29205 6.5044C0.402116 7.61421 0.716211 9.03811 1.98306 9.6663L5.88832 11.6242C6.40135 11.8754 7.23894 11.8754 7.75196 11.6242L11.6572 9.6663C12.9241 9.02764 13.2382 7.60374 12.3482 6.5044L8.44297 1.62545C7.5635 0.505171 6.09772 0.505171 5.20778 1.62545Z" stroke="white" stroke-width="1.5" stroke-miterlimit="10" stroke-linecap="round" stroke-linejoin="round"/>
<path d="M6.83097 0.840196V6.34734" stroke="white" stroke-width="1.5" stroke-miterlimit="10" stroke-linecap="round" stroke-linejoin="round"/>
<path d="M2.43342 9.64536L6.83077 6.34735L11.2281 9.64536" stroke="white" stroke-width="1.5" stroke-miterlimit="10" stroke-linecap="round" stroke-linejoin="round"/>
<path d="M3.44932 13.5402L5.13497 14.2941C6.21337 14.7757 7.44881 14.7757 8.53767 14.2941L10.2233 13.5402C11.731 12.8702 13.1235 14.6919 12.0765 15.9692L8.45392 20.398C7.56398 21.4869 6.10867 21.4869 5.20826 20.398L1.59616 15.9692C0.538701 14.6919 1.93119 12.8702 3.44932 13.5402Z" stroke="white" stroke-width="1.5" stroke-miterlimit="10" stroke-linecap="round" stroke-linejoin="round"/>
</svg>
