<svg width="24" height="24" viewBox="0 0 24 24" fill="none" xmlns="http://www.w3.org/2000/svg">
<path d="M22.3251 11.9997C22.3251 17.7022 17.7022 22.3251 11.9997 22.3251V23.9995C18.627 23.9995 23.9995 18.627 23.9995 11.9997H22.3251ZM11.9997 22.3251C6.2972 22.3251 1.67438 17.7022 1.67438 11.9997H0C0 18.627 5.37246 23.9995 11.9997 23.9995V22.3251ZM1.67438 11.9997C1.67438 6.2972 6.2972 1.67438 11.9997 1.67438V0C5.37246 0 0 5.37246 0 11.9997H1.67438ZM11.9997 1.67438C17.7022 1.67438 22.3251 6.2972 22.3251 11.9997H23.9995C23.9995 5.37246 18.627 0 11.9997 0V1.67438Z" fill="#93989A"/>
<path d="M7.53482 1.11616C7.07245 1.11616 6.69763 1.49099 6.69763 1.95335C6.69763 2.41572 7.07245 2.79054 7.53482 2.79054V1.11616ZM8.65108 1.95335L9.44517 2.2185C9.53043 1.96318 9.48771 1.68243 9.33036 1.46401C9.17302 1.2456 8.92026 1.11616 8.65108 1.11616V1.95335ZM8.65108 22.0459V22.8831C8.92026 22.8831 9.17302 22.7536 9.33036 22.5353C9.48771 22.3168 9.53043 22.0361 9.44517 21.7808L8.65108 22.0459ZM7.53482 21.2087C7.07245 21.2087 6.69763 21.5836 6.69763 22.0459C6.69763 22.5083 7.07245 22.8831 7.53482 22.8831V21.2087ZM7.53482 2.79054H8.65108V1.11616H7.53482V2.79054ZM7.85698 1.6882C5.62282 8.37922 5.62282 15.6201 7.85698 22.311L9.44517 21.7808C7.32594 15.4339 7.32594 8.56533 9.44517 2.2185L7.85698 1.6882ZM8.65108 21.2087H7.53482V22.8831H8.65108V21.2087Z" fill="#93989A"/>
<path d="M16.1426 1.68843C15.9962 1.24987 15.5219 1.01305 15.0834 1.15949C14.6448 1.30593 14.408 1.78017 14.5544 2.21873L16.1426 1.68843ZM14.5544 21.781C14.408 22.2196 14.6448 22.6938 15.0834 22.8403C15.5219 22.9867 15.9962 22.7498 16.1426 22.3113L14.5544 21.781ZM14.5544 2.21873C16.6737 8.56555 16.6737 15.4341 14.5544 21.781L16.1426 22.3113C18.3768 15.6203 18.3768 8.37945 16.1426 1.68843L14.5544 2.21873Z" fill="#93989A"/>
<path d="M1.11716 16.4648C1.11716 16.9272 1.49198 17.302 1.95435 17.302C2.41672 17.302 2.79154 16.9272 2.79154 16.4648H1.11716ZM1.95435 15.3486L2.2195 14.5545C1.96418 14.4692 1.68343 14.5119 1.46501 14.6693C1.2466 14.8266 1.11716 15.0794 1.11716 15.3486H1.95435ZM22.0469 15.3486H22.8841C22.8841 15.0794 22.7546 14.8266 22.5363 14.6693C22.3178 14.5119 22.0371 14.4692 21.7818 14.5545L22.0469 15.3486ZM21.2097 16.4648C21.2097 16.9272 21.5846 17.302 22.0469 17.302C22.5093 17.302 22.8841 16.9272 22.8841 16.4648H21.2097ZM2.79154 16.4648V15.3486H1.11716V16.4648H2.79154ZM1.6892 16.1427C8.38022 18.3768 15.6211 18.3768 22.312 16.1427L21.7818 14.5545C15.4349 16.6737 8.56633 16.6737 2.2195 14.5545L1.6892 16.1427ZM21.2097 15.3486V16.4648H22.8841V15.3486H21.2097Z" fill="#93989A"/>
<path d="M1.68943 7.85698C1.25086 8.00342 1.01405 8.47767 1.16049 8.91623C1.30693 9.3548 1.78117 9.59161 2.21973 9.44517L1.68943 7.85698ZM21.782 9.44517C22.2206 9.59161 22.6948 9.3548 22.8412 8.91623C22.9877 8.47767 22.7508 8.00342 22.3123 7.85698L21.782 9.44517ZM2.21973 9.44517C8.56655 7.32594 15.4351 7.32594 21.782 9.44517L22.3123 7.85698C15.6213 5.62282 8.38045 5.62282 1.68943 7.85698L2.21973 9.44517Z" fill="#93989A"/>
</svg>
