<svg width="57" height="41" viewBox="0 0 57 41" fill="none" xmlns="http://www.w3.org/2000/svg">
<ellipse cx="24.1478" cy="19.8239" rx="24.1478" ry="19.8239" fill="#395A6A"/>
<rect x="36.7966" y="20.7679" width="20.2034" height="20.2034" rx="10" fill="#26DC43"/>
<path d="M45.7617 33.9002C45.6613 33.8988 45.5651 33.86 45.4918 33.7913L42.8402 31.1396C42.7797 31.066 42.7489 30.9725 42.7535 30.8774C42.7582 30.7823 42.7981 30.6924 42.8654 30.625C42.9327 30.5577 43.0227 30.5178 43.1178 30.5132C43.2129 30.5085 43.3064 30.5394 43.38 30.5998L45.7617 32.9863L50.7952 27.9481C50.8688 27.8877 50.9623 27.8568 51.0574 27.8615C51.1525 27.8661 51.2424 27.906 51.3098 27.9733C51.3771 28.0407 51.417 28.1306 51.4216 28.2257C51.4263 28.3208 51.3954 28.4143 51.335 28.4879L46.0316 33.7913C45.9584 33.86 45.8621 33.8988 45.7617 33.9002Z" fill="#E2E7E9"/>
</svg>
