<svg width="21" height="21" viewBox="0 0 21 21" fill="none" xmlns="http://www.w3.org/2000/svg">
<path d="M7.79077 4.15007C7.61024 3.96636 7.38567 3.83195 7.13847 3.75964C6.89127 3.68733 6.62967 3.67953 6.37859 3.73698C6.12524 3.79298 5.89018 3.9122 5.69533 4.08353C5.50048 4.25487 5.35217 4.47275 5.26422 4.71686L0.0862496 18.9443C0.00550164 19.1758 -0.0190278 19.4233 0.0146853 19.6662C0.0483983 19.9091 0.139387 20.1405 0.280145 20.3413C0.420902 20.5421 0.607393 20.7066 0.824229 20.8211C1.04107 20.9357 1.28203 20.997 1.52724 21.0001C1.70691 21.0004 1.8854 20.9712 2.05561 20.9136L16.283 15.7357C16.5271 15.6477 16.745 15.4994 16.9164 15.3046C17.0877 15.1097 17.2069 14.8746 17.2629 14.6213C17.3204 14.3702 17.3126 14.1086 17.2403 13.8614C17.1679 13.6142 17.0335 13.3897 16.8498 13.2091L7.79077 4.15007ZM7.21437 17.3976L3.60228 13.7855L4.86075 10.3079L10.692 16.1391L7.21437 17.3976ZM1.53685 19.463L3.01627 15.3802L5.61967 17.9836L1.53685 19.463ZM12.2867 15.5531L5.44675 8.71322L6.70522 5.23562L15.7643 14.2947L12.2867 15.5531ZM12.5461 6.14825C12.5602 5.62848 12.6846 5.11765 12.9111 4.64961C13.4203 3.63131 14.3809 3.07412 15.6202 3.07412C16.2638 3.07412 16.6769 2.85317 16.9363 2.38244C17.0685 2.11589 17.1438 1.8247 17.1572 1.52745C17.1572 1.42698 17.1772 1.3275 17.2159 1.23479C17.2547 1.14208 17.3114 1.05799 17.3829 0.987389C17.4544 0.91679 17.5392 0.861089 17.6324 0.823519C17.7256 0.78595 17.8253 0.767259 17.9258 0.768531C18.1296 0.768531 18.3251 0.849501 18.4692 0.993628C18.6133 1.13776 18.6943 1.33323 18.6943 1.53706C18.6943 2.77632 17.8777 4.61118 15.6202 4.61118C14.9765 4.61118 14.5634 4.83214 14.3041 5.30286C14.1718 5.56942 14.0966 5.8606 14.0831 6.15785C14.0831 6.25833 14.0632 6.35781 14.0244 6.45052C13.9857 6.54322 13.9289 6.62732 13.8574 6.69792C13.786 6.76852 13.7012 6.82422 13.608 6.86179C13.5148 6.89936 13.4151 6.91805 13.3146 6.91678C13.1108 6.91678 12.9153 6.83581 12.7711 6.69168C12.627 6.54755 12.5461 6.35207 12.5461 6.14825ZM10.2405 3.07412V0.768531C10.2405 0.564704 10.3214 0.369225 10.4656 0.225097C10.6097 0.0809699 10.8052 0 11.009 0C11.2128 0 11.4083 0.0809699 11.5524 0.225097C11.6966 0.369225 11.7775 0.564704 11.7775 0.768531V3.07412C11.7775 3.27795 11.6966 3.47343 11.5524 3.61756C11.4083 3.76168 11.2128 3.84265 11.009 3.84265C10.8052 3.84265 10.6097 3.76168 10.4656 3.61756C10.3214 3.47343 10.2405 3.27795 10.2405 3.07412ZM20.0104 10.9804C20.1547 11.1261 20.2357 11.3229 20.2357 11.528C20.2357 11.733 20.1547 11.9298 20.0104 12.0755C19.8635 12.2176 19.6672 12.297 19.4628 12.297C19.2585 12.297 19.0621 12.2176 18.9152 12.0755L17.3782 10.5385C17.2556 10.3892 17.193 10.1996 17.2025 10.0066C17.212 9.8137 17.2929 9.63118 17.4295 9.49459C17.5661 9.35799 17.7486 9.27709 17.9415 9.26761C18.1345 9.25814 18.324 9.32077 18.4733 9.44332L20.0104 10.9804ZM20.4715 6.87835L18.1659 7.64688C18.0887 7.67358 18.0074 7.68658 17.9258 7.68531C17.743 7.68535 17.5662 7.62025 17.4271 7.50169C17.288 7.38313 17.1956 7.21886 17.1667 7.03839C17.1378 6.85791 17.1742 6.67303 17.2692 6.51693C17.3643 6.36084 17.512 6.24375 17.6856 6.18667L19.9912 5.41814C20.0871 5.3866 20.1882 5.37426 20.2889 5.38181C20.3895 5.38936 20.4877 5.41667 20.5778 5.46216C20.6679 5.50766 20.7482 5.57045 20.814 5.64696C20.8798 5.72347 20.9299 5.8122 20.9615 5.90808C20.993 6.00396 21.0053 6.10511 20.9978 6.20576C20.9902 6.30641 20.9629 6.40459 20.9174 6.49468C20.8719 6.58478 20.8092 6.66504 20.7326 6.73087C20.6561 6.7967 20.5674 6.84681 20.4715 6.87835Z" fill="#3E4B65"/>
</svg>
