<svg width="10" height="16" viewBox="0 0 10 16" fill="none" xmlns="http://www.w3.org/2000/svg">
<path d="M3.83418 1.25694L1.01762 4.76634C0.377492 5.56462 0.60342 6.58882 1.51466 7.04068L4.32369 8.44896C4.69271 8.6297 5.29518 8.6297 5.66419 8.44896L8.47322 7.04068C9.38446 6.58129 9.61039 5.55709 8.97026 4.76634L6.16123 1.25694C5.52864 0.451129 4.47431 0.451129 3.83418 1.25694Z" stroke="#3772FF" stroke-width="1.3" stroke-miterlimit="10" stroke-linecap="round" stroke-linejoin="round"/>
<path d="M5.001 0.69205V4.65331" stroke="#3772FF" stroke-width="1.3" stroke-miterlimit="10" stroke-linecap="round" stroke-linejoin="round"/>
<path d="M1.8386 7.02562L5.00158 4.65338L8.16457 7.02562" stroke="#3772FF" stroke-width="1.3" stroke-miterlimit="10" stroke-linecap="round" stroke-linejoin="round"/>
<path d="M2.56909 9.82705L3.78156 10.3693C4.55725 10.7157 5.44589 10.7157 6.22911 10.3693L7.44159 9.82705C8.52604 9.34507 9.52765 10.6554 8.77456 11.5742L6.16886 14.7598C5.52873 15.543 4.48194 15.543 3.83428 14.7598L1.23611 11.5742C0.475492 10.6554 1.4771 9.34507 2.56909 9.82705Z" stroke="#3772FF" stroke-width="1.3" stroke-miterlimit="10" stroke-linecap="round" stroke-linejoin="round"/>
</svg>
