<svg width="25" height="25" viewBox="0 0 25 25" fill="none" xmlns="http://www.w3.org/2000/svg">
<path opacity="0.4" d="M13.5172 3.24256L15.8365 7.90213C16.0073 8.23972 16.3334 8.47416 16.7096 8.52625L21.9191 9.28479C22.2233 9.32751 22.4995 9.48797 22.686 9.73282C22.8704 9.97455 22.9496 10.2809 22.9048 10.582C22.8683 10.8321 22.7506 11.0634 22.5703 11.2405L18.7955 14.8988C18.5194 15.1541 18.3943 15.5323 18.461 15.9022L19.3904 21.0452C19.4894 21.6662 19.0778 22.2518 18.461 22.3695C18.2068 22.4101 17.9463 22.3674 17.7171 22.2507L13.0702 19.8303C12.7253 19.6563 12.3179 19.6563 11.9731 19.8303L7.32615 22.2507C6.75519 22.5539 6.04773 22.3476 5.72995 21.785C5.61222 21.561 5.57054 21.3057 5.60909 21.0567L6.53847 15.9126C6.60515 15.5437 6.47908 15.1634 6.20402 14.9082L2.42919 11.252C1.98013 10.8185 1.96658 10.1048 2.39897 9.65572C2.40835 9.64634 2.41877 9.63592 2.42919 9.6255C2.6084 9.44316 2.84387 9.32751 3.09809 9.29729L8.30763 8.53771C8.68272 8.48458 9.00883 8.25222 9.18075 7.91255L11.4167 3.24256C11.6157 2.84245 12.0283 2.59343 12.4763 2.60385H12.6159C13.0045 2.65074 13.3432 2.89142 13.5172 3.24256Z" fill="#FFCB7B"/>
<path d="M12.4919 19.7005C12.2901 19.7068 12.0935 19.761 11.9167 19.8579L7.2925 22.2729C6.7267 22.5428 6.04961 22.3333 5.73239 21.7924C5.61486 21.5714 5.57221 21.3181 5.61174 21.0701L6.53533 15.9369C6.59773 15.5638 6.47292 15.1844 6.20146 14.9217L2.42494 11.2665C1.97667 10.8277 1.96835 10.1075 2.40726 9.65829C2.4135 9.65203 2.4187 9.64682 2.42494 9.64161C2.60383 9.46443 2.83473 9.34769 3.08331 9.31121L8.29722 8.5441C8.67477 8.49616 9.00239 8.26061 9.1688 7.91874L11.4351 3.18997C11.6504 2.8085 12.0633 2.58129 12.5002 2.60526C12.4919 2.91481 12.4919 19.49 12.4919 19.7005Z" fill="#FFCB7B"/>
</svg>
