<svg width="11" height="15" viewBox="0 0 11 15" fill="none" xmlns="http://www.w3.org/2000/svg">
<path d="M0.581224 5.32619L5.01901 3.73694C5.21439 3.66948 5.43769 3.66948 5.62377 3.73694L10.0616 5.32619C10.4524 5.46861 10.8152 5.08629 10.5454 4.81642L5.89356 0.236136C5.57723 -0.0787121 5.05623 -0.0787121 4.73992 0.236136L0.0881048 4.81642C-0.172396 5.08629 0.190472 5.46861 0.581224 5.32619Z" fill="#15161E"/>
<path d="M0.582415 9.67383L5.02951 11.2631C5.22489 11.3305 5.4482 11.3305 5.63427 11.2631L10.0814 9.67383C10.4721 9.53139 10.835 9.91371 10.5652 10.1836L5.91336 14.7639C5.59705 15.0787 5.07605 15.0787 4.75972 14.7639L0.107922 10.1836C-0.171186 9.91371 0.18236 9.53139 0.582415 9.67383Z" fill="#15161E"/>
<path d="M5.12149 5.61836L1.27908 7.16261C0.93485 7.29754 0.93485 7.69486 1.27908 7.8298L5.12149 9.37405C5.25173 9.42653 5.40985 9.42653 5.54009 9.37405L9.3825 7.8298C9.72674 7.69486 9.72674 7.29754 9.3825 7.16261L5.54009 5.61836C5.40054 5.56588 5.25173 5.56588 5.12149 5.61836Z" fill="#15161E"/>
</svg>
