<svg width="24" height="17" viewBox="0 0 24 17" fill="none" xmlns="http://www.w3.org/2000/svg">
<path d="M20 3.37798H9.6V9.037H8.4923V7.11342C8.49101 6.02356 8.02905 4.97869 7.20776 4.20803C6.38648 3.43738 5.27294 3.00388 4.11145 3.00265H1.6V0H0V16.1393H1.6V13.8993L22.4 14.0555V16.1393H24V7.1313C23.9988 6.1362 23.577 5.18219 22.8271 4.47855C22.0772 3.77491 21.0605 3.37911 20 3.37798ZM1.6 4.50398H4.11145C4.84872 4.50476 5.55555 4.77992 6.07688 5.2691C6.59821 5.75828 6.89146 6.42153 6.8923 7.11333V9.0369H1.6V4.50398ZM22.4 12.5541L1.6 12.398V10.5383H22.4V12.5541ZM22.4 9.037H11.2V4.87931H20C20.6363 4.87999 21.2463 5.11747 21.6962 5.53966C22.1462 5.96184 22.3993 6.53424 22.4 7.1313V9.037Z" fill="#BABBC3"/>
</svg>
