<svg width="84" height="28" viewBox="0 0 84 28" fill="none" xmlns="http://www.w3.org/2000/svg">
<path d="M35.9466 14.7348C35.9466 18.7633 32.8345 21.7316 29.0152 21.7316C25.1959 21.7316 22.0838 18.7633 22.0838 14.7348C22.0838 10.678 25.1959 7.73797 29.0152 7.73797C32.8345 7.73797 35.9466 10.678 35.9466 14.7348ZM32.9124 14.7348C32.9124 12.2175 31.1086 10.4951 29.0152 10.4951C26.9218 10.4951 25.118 12.2175 25.118 14.7348C25.118 17.227 26.9218 18.9746 29.0152 18.9746C31.1086 18.9746 32.9124 17.2238 32.9124 14.7348Z" fill="#EA4335"/>
<path d="M50.8996 14.7348C50.8996 18.7633 47.7875 21.7316 43.9682 21.7316C40.1489 21.7316 37.0368 18.7633 37.0368 14.7348C37.0368 10.6812 40.1489 7.73797 43.9682 7.73797C47.7875 7.73797 50.8996 10.678 50.8996 14.7348ZM47.8654 14.7348C47.8654 12.2175 46.0616 10.4951 43.9682 10.4951C41.8748 10.4951 40.071 12.2175 40.071 14.7348C40.071 17.227 41.8748 18.9746 43.9682 18.9746C46.0616 18.9746 47.8654 17.2238 47.8654 14.7348Z" fill="#FBBC05"/>
<path d="M65.2299 8.16068V20.7223C65.2299 25.8894 62.2206 27.9999 58.663 27.9999C55.3141 27.9999 53.2986 25.7317 52.5384 23.8768L55.1802 22.7632C55.6506 23.902 56.8032 25.2459 58.6599 25.2459C60.9371 25.2459 62.3483 23.8232 62.3483 21.145V20.1387H62.2424C61.5633 20.9873 60.2549 21.7285 58.6038 21.7285C55.149 21.7285 51.9839 18.6812 51.9839 14.7601C51.9839 10.8105 55.149 7.73797 58.6038 7.73797C60.2518 7.73797 61.5602 8.4793 62.2424 9.30265H62.3483V8.16384H65.2299V8.16068ZM62.5632 14.7601C62.5632 12.2963 60.9402 10.4951 58.8748 10.4951C56.7814 10.4951 55.0275 12.2963 55.0275 14.7601C55.0275 17.1986 56.7814 18.9746 58.8748 18.9746C60.9402 18.9746 62.5632 17.1986 62.5632 14.7601Z" fill="#4285F4"/>
<path d="M69.9804 0.7976V21.3024H67.0209V0.7976H69.9804Z" fill="#34A853"/>
<path d="M81.5137 17.0372L83.8688 18.6271C83.1087 19.7659 81.277 21.728 78.1119 21.728C74.1867 21.728 71.2552 18.6555 71.2552 14.7312C71.2552 10.5703 74.2116 7.73431 77.7723 7.73431C81.358 7.73431 83.1118 10.6239 83.685 12.1854L83.9997 12.9804L74.763 16.8542C75.4702 18.258 76.5698 18.9741 78.1119 18.9741C79.657 18.9741 80.7287 18.2043 81.5137 17.0372ZM74.2646 14.5198L80.439 11.9236C80.0994 11.0498 79.0776 10.4409 77.8751 10.4409C76.3331 10.4409 74.1867 11.8195 74.2646 14.5198Z" fill="#EA4335"/>
<path d="M10.8815 12.9149V9.94639H20.7599C20.8565 10.4637 20.9063 11.0757 20.9063 11.7382C20.9063 13.9654 20.3051 16.7193 18.3674 18.6814C16.4828 20.6688 14.0747 21.7288 10.8846 21.7288C4.97192 21.7288 0 16.8518 0 10.8644C0 4.87699 4.97192 0 10.8846 0C14.1557 0 16.4859 1.29969 18.2366 2.99369L16.1681 5.08835C14.9127 3.89591 13.2117 2.96846 10.8815 2.96846C6.56381 2.96846 3.18689 6.49213 3.18689 10.8644C3.18689 15.2367 6.56381 18.7603 10.8815 18.7603C13.6821 18.7603 15.2772 17.6215 16.299 16.5868C17.1276 15.7477 17.6727 14.549 17.8877 12.9117L10.8815 12.9149Z" fill="#4285F4"/>
</svg>
