<svg width="17" height="17" viewBox="0 0 17 17" fill="none" xmlns="http://www.w3.org/2000/svg">
<path d="M8.5 9.78788C9.21128 9.78788 9.78788 9.21128 9.78788 8.5C9.78788 7.78872 9.21128 7.21212 8.5 7.21212C7.78872 7.21212 7.21212 7.78872 7.21212 8.5C7.21212 9.21128 7.78872 9.78788 8.5 9.78788Z" stroke="white" stroke-width="1.5" stroke-linecap="round" stroke-linejoin="round"/>
<path d="M6.70516 4.20724H5.49512C5.15355 4.20724 4.82597 4.34293 4.58445 4.58445C4.34293 4.82597 4.20724 5.15355 4.20724 5.49512V11.5052C4.20724 11.8468 4.34293 12.1744 4.58445 12.4159C4.82597 12.6574 5.15355 12.7931 5.49512 12.7931H11.5052C11.8468 12.7931 12.1744 12.6574 12.4159 12.4159C12.6574 12.1744 12.7931 11.8468 12.7931 11.5052V5.49512C12.7931 5.15355 12.6574 4.82597 12.4159 4.58445C12.1744 4.34293 11.8468 4.20724 11.5052 4.20724H9.35875C9.13104 4.20724 8.91266 4.2977 8.75164 4.45871C8.59063 4.61973 8.50017 4.83811 8.50017 5.06582V7.21229" stroke="white" stroke-width="1.5" stroke-linecap="round" stroke-linejoin="round"/>
<path d="M11.9343 0.772727H5.06566C2.69474 0.772727 0.772727 2.69474 0.772727 5.06566V11.9343C0.772727 14.3053 2.69474 16.2273 5.06566 16.2273H11.9343C14.3053 16.2273 16.2273 14.3053 16.2273 11.9343V5.06566C16.2273 2.69474 14.3053 0.772727 11.9343 0.772727Z" stroke="white" stroke-width="1.5" stroke-linecap="round" stroke-linejoin="round"/>
</svg>
