<svg width="18" height="17" viewBox="0 0 18 17" fill="none" xmlns="http://www.w3.org/2000/svg">
<path d="M5.05906 2.5988C4.72179 2.5988 4.49694 2.91065 4.49694 3.11855V5.71735H3.3727V3.11855C3.3727 2.8067 3.14786 2.5988 2.81059 2.5988C2.47332 2.5988 2.24847 2.91065 2.24847 3.11855V5.71735H1.12423V3.11855C1.12423 2.8067 0.899388 2.5988 0.562117 2.5988C0.224847 2.5988 0 2.91065 0 3.11855V6.54897C0 7.48453 0.786964 8.21219 1.68635 8.31615V15.5928C1.68635 16.2165 2.13605 16.6323 2.81059 16.6323C3.48513 16.6323 3.93482 16.2165 3.93482 15.5928V8.31615C4.83421 8.21219 5.62117 7.48453 5.62117 6.54897V3.11855C5.62117 2.91065 5.39633 2.5988 5.05906 2.5988ZM7.30753 3.11855V9.35566H8.43176V15.5928C8.43176 16.2165 8.88145 16.6323 9.55599 16.6323C10.2305 16.6323 10.6802 16.2165 10.6802 15.5928V0C8.76903 0 7.30753 1.35137 7.30753 3.11855ZM15.1772 2.07904C13.6032 2.07904 12.3666 3.63831 12.3666 5.50945C12.2542 6.75687 12.9287 7.90034 14.0529 8.628V15.5928C14.0529 16.2165 14.5026 16.6323 15.1772 16.6323C15.8517 16.6323 16.3014 16.2165 16.3014 15.5928V8.628C17.4256 7.90034 18.1002 6.75687 17.9878 5.50945C17.9878 3.63831 16.7511 2.07904 15.1772 2.07904Z" fill="#BABBC3"/>
</svg>
