<svg width="24" height="24" viewBox="0 0 24 24" fill="none" xmlns="http://www.w3.org/2000/svg">
<path d="M6.91659 15.3719L7.63327 15.779L7.63515 15.7759L6.91659 15.3719ZM5.63387 17.3815L4.91719 16.9744L4.91706 16.9746L5.63387 17.3815ZM6.83851 20.4644L6.57031 21.2118L6.57341 21.2128L6.83851 20.4644ZM21.64 20.4644L21.3774 19.7151L21.3749 19.716L21.64 20.4644ZM22.8447 17.3815L23.562 16.9755L23.5613 16.9744L22.8447 17.3815ZM21.5619 15.3719L20.8371 15.7663L20.8452 15.779L21.5619 15.3719ZM14.2448 3.06152C10.0908 3.06152 6.71582 6.24516 6.71582 10.1637H8.38893C8.38893 7.1168 11.0148 4.63977 14.2448 4.63977V3.06152ZM6.71582 10.1637V13.2044H8.38893V10.1637H6.71582ZM6.71582 13.2044C6.71582 13.4303 6.66163 13.7607 6.55806 14.1126C6.45458 14.4643 6.3204 14.7741 6.19803 14.9678L7.63515 15.7759C7.85855 15.4225 8.04226 14.9695 8.17022 14.5348C8.2981 14.1002 8.38893 13.6204 8.38893 13.2044H6.71582ZM6.19991 14.9648L4.91719 16.9744L6.35055 17.7886L7.63326 15.779L6.19991 14.9648ZM4.91706 16.9746C4.40282 17.7809 4.29551 18.6854 4.61095 19.4889C4.92602 20.2916 5.63068 20.9119 6.57031 21.2118L7.1067 19.7169C6.5963 19.5539 6.30268 19.2535 6.17995 18.9409C6.05759 18.6292 6.07298 18.2237 6.35067 17.7884L4.91706 16.9746ZM6.57341 21.2128C11.5529 22.7822 16.9256 22.7822 21.905 21.2128L21.3749 19.716C16.7396 21.1768 11.739 21.1768 7.1036 19.716L6.57341 21.2128ZM21.9026 21.2136C23.7642 20.633 24.5722 18.5638 23.562 16.9755L22.1272 17.7876C22.5893 18.514 22.215 19.454 21.3774 19.7151L21.9026 21.2136ZM23.5613 16.9744L22.2786 14.9648L20.8452 15.779L22.1279 17.7886L23.5613 16.9744ZM22.2865 14.9775C22.1661 14.7808 22.0334 14.4676 21.9309 14.115C21.8281 13.7614 21.7739 13.4305 21.7739 13.2044H20.1007C20.1007 13.6202 20.1914 14.0994 20.3174 14.5324C20.4434 14.9662 20.623 15.4159 20.8373 15.7662L22.2865 14.9775ZM21.7739 13.2044V10.1637H20.1007V13.2044H21.7739ZM21.7739 10.1637C21.7739 6.25568 18.3877 3.06152 14.2448 3.06152V4.63977C17.4637 4.63977 20.1007 7.12732 20.1007 10.1637H21.7739Z" fill="#010101"/>
<path d="M16.3073 4.15587L16.0741 4.91371C16.3802 4.99754 16.7102 4.90999 16.9251 4.68793C17.1401 4.46587 17.2025 4.1479 17.0862 3.86794L16.3073 4.15587ZM15.2365 3.94544L15.1328 4.72847L15.1359 4.72883L15.2365 3.94544ZM12.1803 4.15587L11.4014 3.86794C11.2851 4.14794 11.3476 4.46597 11.5626 4.68803C11.7776 4.91009 12.1077 4.99757 12.4138 4.91363L12.1803 4.15587ZM16.5406 3.39804C16.1584 3.29339 15.7569 3.21003 15.3372 3.16205L15.1359 4.72883C15.4524 4.76502 15.7647 4.82896 16.0741 4.91371L16.5406 3.39804ZM15.3403 3.16241C14.1629 3.02357 13.0216 3.1034 11.9468 3.39811L12.4138 4.91363C13.2576 4.68226 14.1686 4.61479 15.1328 4.72847L15.3403 3.16241ZM12.9592 4.44381C13.1606 3.95905 13.6606 3.61927 14.2438 3.61927V2.04102C12.9531 2.04102 11.847 2.79549 11.4014 3.86794L12.9592 4.44381ZM14.2438 3.61927C14.827 3.61927 15.3271 3.95905 15.5285 4.44381L17.0862 3.86794C16.6407 2.79549 15.5345 2.04102 14.2438 2.04102V3.61927Z" fill="#010101"/>
<path d="M16.753 20.0542C16.753 21.3545 15.6217 22.4216 14.2433 22.4216V23.9998C16.5458 23.9998 18.4261 22.2261 18.4261 20.0542H16.753ZM14.2433 22.4216C13.5601 22.4216 12.9225 22.1535 12.4702 21.7268L11.2871 22.8428C12.0394 23.5525 13.0973 23.9998 14.2433 23.9998V22.4216ZM12.4702 21.7268C12.0179 21.3001 11.7337 20.6987 11.7337 20.0542H10.0605C10.0605 21.1353 10.5348 22.1331 11.2871 22.8428L12.4702 21.7268Z" fill="#010101"/>
<circle cx="21" cy="3" r="3" fill="#E23434"/>
</svg>
