<svg width="18" height="18" viewBox="0 0 18 18" fill="none" xmlns="http://www.w3.org/2000/svg">
<path d="M16.3636 9C16.3636 13.0668 13.0668 16.3636 9 16.3636V18C13.9705 18 18 13.9705 18 9H16.3636ZM9 16.3636C4.93318 16.3636 1.63636 13.0668 1.63636 9H0C0 13.9705 4.02944 18 9 18V16.3636ZM1.63636 9C1.63636 4.93318 4.93318 1.63636 9 1.63636V0C4.02944 0 0 4.02944 0 9H1.63636ZM9 1.63636C13.0668 1.63636 16.3636 4.93318 16.3636 9H18C18 4.02944 13.9705 0 9 0V1.63636Z" fill="#010101"/>
<path d="M5.72784 0.818115C5.27597 0.818115 4.90966 1.18443 4.90966 1.6363C4.90966 2.08817 5.27597 2.45448 5.72784 2.45448V0.818115ZM6.54602 1.6363L7.32209 1.89543C7.4054 1.6459 7.36365 1.37152 7.20989 1.15807C7.05612 0.944613 6.8091 0.818115 6.54602 0.818115V1.6363ZM6.54602 16.3636V17.1818C6.8091 17.1818 7.05612 17.0552 7.20989 16.8418C7.36365 16.6283 7.4054 16.354 7.32209 16.1045L6.54602 16.3636ZM5.72784 15.5454C5.27597 15.5454 4.90966 15.9117 4.90966 16.3636C4.90966 16.8154 5.27597 17.1818 5.72784 17.1818V15.5454ZM5.72784 2.45448H6.54602V0.818115H5.72784V2.45448ZM5.76996 1.37717C4.11835 6.32354 4.11835 11.6763 5.76996 16.6227L7.32209 16.1045C5.78279 11.4944 5.78279 6.50542 7.32209 1.89543L5.76996 1.37717ZM6.54602 15.5454H5.72784V17.1818H6.54602V15.5454Z" fill="#010101"/>
<path d="M12.2312 1.37739C12.0881 0.948782 11.6246 0.717343 11.196 0.860456C10.7674 1.00357 10.5359 1.46704 10.6791 1.89565L12.2312 1.37739ZM10.6791 16.1047C10.5359 16.5333 10.7674 16.9967 11.196 17.1399C11.6246 17.283 12.0881 17.0515 12.2312 16.6229L10.6791 16.1047ZM10.6791 1.89565C12.2184 6.50564 12.2184 11.4947 10.6791 16.1047L12.2312 16.6229C13.8828 11.6765 13.8828 6.32376 12.2312 1.37739L10.6791 1.89565Z" fill="#010101"/>
<path d="M0.818359 12.2728C0.818359 12.7247 1.18467 13.091 1.63654 13.091C2.08841 13.091 2.45472 12.7247 2.45472 12.2728H0.818359ZM1.63654 11.4547L1.89567 10.6786C1.64614 10.5953 1.37177 10.637 1.15831 10.7908C0.944857 10.9446 0.818359 11.1916 0.818359 11.4547H1.63654ZM16.3638 11.4547H17.182C17.182 11.1916 17.0555 10.9446 16.8421 10.7908C16.6286 10.637 16.3542 10.5953 16.1047 10.6786L16.3638 11.4547ZM15.5456 12.2728C15.5456 12.7247 15.912 13.091 16.3638 13.091C16.8157 13.091 17.182 12.7247 17.182 12.2728H15.5456ZM2.45472 12.2728V11.4547H0.818359V12.2728H2.45472ZM1.37741 12.2307C6.32378 13.8823 11.6766 13.8823 16.6229 12.2307L16.1047 10.6786C11.4947 12.2179 6.50566 12.2179 1.89567 10.6786L1.37741 12.2307ZM15.5456 11.4547V12.2728H17.182V11.4547H15.5456Z" fill="#010101"/>
<path d="M1.37763 5.76971C0.949026 5.91283 0.717587 6.3763 0.8607 6.8049C1.00381 7.23351 1.46729 7.46495 1.89589 7.32184L1.37763 5.76971ZM16.1049 7.32184C16.5336 7.46495 16.997 7.23351 17.1401 6.8049C17.2832 6.3763 17.0517 5.91283 16.6231 5.76971L16.1049 7.32184ZM1.89589 7.32184C6.50588 5.78254 11.4949 5.78254 16.1049 7.32184L16.6231 5.76971C11.6768 4.1181 6.32401 4.1181 1.37763 5.76971L1.89589 7.32184Z" fill="#010101"/>
</svg>
