<svg width="48" height="48" viewBox="0 0 48 48" fill="none" xmlns="http://www.w3.org/2000/svg">
<rect width="48" height="48" rx="24" fill="#F7F9FA"/>
<path d="M20.0729 26.344C20.4419 26.532 20.8936 26.3852 21.0816 26.0161C21.2696 25.647 21.1228 25.1954 20.7538 25.0074L20.0729 26.344ZM18.8366 25.2998V24.5498C18.819 24.5498 18.8014 24.5505 18.7839 24.5517L18.8366 25.2998ZM18.8366 32.1474L18.7839 32.8955C18.8014 32.8968 18.819 32.8974 18.8366 32.8974V32.1474ZM29.0024 32.1474L29.008 31.3974H29.0024V32.1474ZM32.3391 30.8641L31.8461 30.2989C31.8412 30.3031 31.8363 30.3075 31.8315 30.3119L32.3391 30.8641ZM29.7724 22.4398L29.0326 22.563C29.087 22.8898 29.3493 23.1421 29.6779 23.1839L29.7724 22.4398ZM18.1767 25.5535C18.3168 25.9433 18.7464 26.1457 19.1362 26.0056C19.526 25.8655 19.7284 25.4359 19.5883 25.0461L18.1767 25.5535ZM20.7538 25.0074C20.1608 24.7053 19.5031 24.5498 18.8366 24.5498V26.0498C19.2702 26.0498 19.6942 26.151 20.0729 26.344L20.7538 25.0074ZM18.7839 24.5517C13.5642 24.9197 13.5642 32.5275 18.7839 32.8955L18.8894 31.3992C15.5291 31.1623 15.5291 26.2849 18.8894 26.048L18.7839 24.5517ZM18.8366 32.8974H29.0024V31.3974H18.8366V32.8974ZM28.9969 32.8974C30.4234 32.9079 31.7987 32.3795 32.8467 31.4162L31.8315 30.3119C31.0645 31.017 30.0564 31.4052 29.008 31.3974L28.9969 32.8974ZM32.8321 31.4292C34.5992 29.8877 34.9862 27.5832 34.3926 25.6357C33.799 23.6884 32.1924 21.9912 29.8669 21.6958L29.6779 23.1839C31.3216 23.3926 32.5063 24.5921 32.9577 26.0731C33.4091 27.5541 33.0948 29.2095 31.8461 30.2989L32.8321 31.4292ZM30.5122 22.3167C30.1223 19.9744 28.9633 18.3638 27.4336 17.4653C25.9216 16.5773 24.1198 16.4273 22.4971 16.8539C20.8744 17.2804 19.3778 18.2976 18.4937 19.814C17.5992 21.348 17.3741 23.3207 18.1767 25.5535L19.5883 25.0461C18.9196 23.186 19.1413 21.6812 19.7895 20.5695C20.4479 19.4401 21.5896 18.6434 22.8785 18.3046C24.1674 17.9657 25.5503 18.0988 26.674 18.7587C27.78 19.4083 28.7076 20.6107 29.0326 22.563L30.5122 22.3167Z" fill="#93989A"/>
<path d="M27.9441 22.1725C27.5736 22.3578 27.4234 22.8083 27.6086 23.1788C27.7939 23.5493 28.2444 23.6994 28.6149 23.5142L27.9441 22.1725ZM29.8232 23.2174C30.2374 23.2103 30.5673 22.8688 30.5602 22.4546C30.553 22.0405 30.2115 21.7105 29.7974 21.7176L29.8232 23.2174ZM28.6149 23.5142C28.9916 23.3258 29.4039 23.2247 29.8232 23.2174L29.7974 21.7176C29.1533 21.7287 28.5207 21.8842 27.9441 22.1725L28.6149 23.5142Z" fill="#93989A"/>
</svg>
