<svg width="25" height="25" viewBox="0 0 25 25" fill="none" xmlns="http://www.w3.org/2000/svg">
<path opacity="0.4" d="M13.5169 3.24249L15.8361 7.90197C16.007 8.23955 16.3331 8.47398 16.7092 8.52608L21.9187 9.2846C22.2229 9.32732 22.499 9.48777 22.6855 9.73263C22.8699 9.97435 22.9491 10.2807 22.9043 10.5818C22.8678 10.8319 22.7501 11.0632 22.5698 11.2403L18.7951 14.8985C18.519 15.1537 18.394 15.532 18.4606 15.9018L19.39 21.0448C19.489 21.6658 19.0774 22.2513 18.4606 22.3691C18.2064 22.4097 17.946 22.367 17.7167 22.2503L13.0699 19.8299C12.7251 19.6559 12.3177 19.6559 11.9728 19.8299L7.32601 22.2503C6.75505 22.5535 6.04761 22.3472 5.72984 21.7845C5.6121 21.5605 5.57043 21.3053 5.60898 21.0562L6.53834 15.9123C6.60502 15.5434 6.47895 15.1631 6.20389 14.9079L2.42914 11.2517C1.98009 10.8183 1.96654 10.1046 2.39893 9.65552C2.4083 9.64615 2.41872 9.63573 2.42914 9.62531C2.60835 9.44297 2.84381 9.32732 3.09803 9.2971L8.30746 8.53754C8.68254 8.4844 9.00865 8.25206 9.18056 7.91239L11.4165 3.24249C11.6155 2.8424 12.028 2.59338 12.476 2.6038H12.6157C13.0043 2.65068 13.3429 2.89137 13.5169 3.24249Z" fill="white"/>
<path d="M12.4916 19.7001C12.2898 19.7064 12.0933 19.7606 11.9164 19.8575L7.29235 22.2724C6.72656 22.5423 6.04949 22.3329 5.73227 21.7919C5.61474 21.571 5.5721 21.3177 5.61162 21.0697L6.53519 15.9366C6.5976 15.5635 6.47279 15.1841 6.20134 14.9214L2.42489 11.2663C1.97663 10.8275 1.96831 10.1073 2.40721 9.65809C2.41345 9.65184 2.41865 9.64663 2.42489 9.64142C2.60378 9.46423 2.83467 9.3475 3.08325 9.31102L8.29705 8.54393C8.67459 8.49599 9.00221 8.26044 9.16862 7.91858L11.4349 3.18991C11.6502 2.80845 12.0631 2.58124 12.4999 2.60521C12.4916 2.91475 12.4916 19.4896 12.4916 19.7001Z" fill="white"/>
</svg>
