<svg width="17" height="16" viewBox="0 0 17 16" fill="none" xmlns="http://www.w3.org/2000/svg">
<path d="M16.7206 14.2209L13.5105 11.2615C14.5462 10.0415 15.1082 8.53489 15.1061 6.98389C15.1061 5.60261 14.6631 4.25234 13.8332 3.10385C13.0032 1.95536 11.8236 1.06021 10.4435 0.53162C9.06334 0.00302599 7.54467 -0.135278 6.07952 0.134197C4.61438 0.403671 3.26855 1.06882 2.21224 2.04554C1.15593 3.02225 0.436569 4.26666 0.145133 5.6214C-0.146303 6.97614 0.00327259 8.38037 0.574945 9.65651C1.14662 10.9326 2.11471 12.0234 3.3568 12.7908C4.59889 13.5582 6.0592 13.9678 7.55305 13.9678C9.23044 13.9697 10.8598 13.4501 12.1793 12.4924L15.3799 15.4606C15.4677 15.5424 15.5721 15.6074 15.6871 15.6517C15.8022 15.696 15.9256 15.7188 16.0502 15.7188C16.1749 15.7188 16.2983 15.696 16.4133 15.6517C16.5284 15.6074 16.6328 15.5424 16.7206 15.4606C16.809 15.3794 16.8793 15.2829 16.9272 15.1765C16.9752 15.0701 16.9998 14.956 16.9998 14.8408C16.9998 14.7255 16.9752 14.6114 16.9272 14.505C16.8793 14.3987 16.809 14.3021 16.7206 14.2209ZM1.88826 6.98389C1.88826 5.94793 2.2205 4.93523 2.84295 4.07386C3.46541 3.21249 4.35013 2.54113 5.38523 2.14469C6.42033 1.74824 7.55933 1.64451 8.65819 1.84662C9.75705 2.04873 10.7664 2.54759 11.5587 3.28013C12.3509 4.01266 12.8904 4.94597 13.109 5.96202C13.3276 6.97808 13.2154 8.03125 12.7866 8.98836C12.3579 9.94546 11.6318 10.7635 10.7002 11.3391C9.76867 11.9146 8.67344 12.2218 7.55305 12.2218C6.05066 12.2218 4.60979 11.67 3.54744 10.6877C2.48509 9.70536 1.88826 8.37307 1.88826 6.98389Z" fill="#347AE2"/>
</svg>
