<svg width="85" height="115" viewBox="0 0 85 115" fill="none" xmlns="http://www.w3.org/2000/svg">
<rect width="34.3379" height="35.1638" rx="2" fill="#F4F5FB"/>
<path d="M77.3485 94.2585C75.5864 94.2585 74.0094 95.1318 73.0261 96.4716C72.0429 95.1318 70.4658 94.2585 68.7038 94.2585C65.7151 94.2585 63.2911 96.7396 63.2911 99.8061C63.2911 100.987 63.476 102.079 63.7973 103.091C65.3354 108.053 70.0764 111.02 72.4225 111.834C72.7535 111.953 73.2987 111.953 73.6297 111.834C75.9758 111.02 80.7168 108.053 82.2549 103.091C82.5762 102.079 82.7612 100.987 82.7612 99.8061C82.7612 96.7396 80.3371 94.2585 77.3485 94.2585Z" fill="#F62525"/>
</svg>
