<svg width="19" height="19" viewBox="0 0 19 19" fill="none" xmlns="http://www.w3.org/2000/svg">
<path d="M18.9992 6.24875V2.72783H17.4305V6.24875H18.9992ZM18.9992 2.72783C18.9992 1.95643 18.8486 1.21304 18.3174 0.681832C17.7861 0.15062 17.0428 0 16.2713 0V1.56872C16.8856 1.56872 17.114 1.69699 17.2081 1.79109C17.3022 1.88519 17.4305 2.11354 17.4305 2.72783H18.9992ZM16.2713 0H12.7504V1.56872H16.2713V0ZM12.7504 0C11.979 0 11.2356 0.15062 10.7044 0.681832C10.1732 1.21304 10.0226 1.95643 10.0226 2.72783H11.5913C11.5913 2.11354 11.7196 1.88519 11.8137 1.79109C11.9078 1.69699 12.1361 1.56872 12.7504 1.56872V0ZM10.0226 2.72783V6.24875H11.5913V2.72783H10.0226ZM10.0226 6.24875C10.0226 7.02016 10.1732 7.76354 10.7044 8.29475C11.2356 8.82596 11.979 8.97658 12.7504 8.97658V7.40786C12.1361 7.40786 11.9078 7.2796 11.8137 7.1855C11.7196 7.0914 11.5913 6.86304 11.5913 6.24875H10.0226ZM12.7504 8.97658H16.2713V7.40786H12.7504V8.97658ZM16.2713 8.97658C17.0428 8.97658 17.7861 8.82596 18.3174 8.29475C18.8486 7.76354 18.9992 7.02016 18.9992 6.24875H17.4305C17.4305 6.86304 17.3022 7.0914 17.2081 7.1855C17.114 7.2796 16.8856 7.40786 16.2713 7.40786V8.97658Z" fill="white"/>
<path d="M6.24875 8.18351L6.25368 7.39914H6.24875V8.18351ZM8.97658 6.46662V2.50996H7.40786V6.46662H8.97658ZM8.97658 2.50996C8.97658 1.79459 8.81538 1.09247 8.2611 0.599995C7.73048 0.128535 7.00283 0 6.24875 0V1.56872C6.88037 1.56872 7.12446 1.68857 7.21915 1.7727C7.29018 1.83581 7.40786 1.99649 7.40786 2.50996H8.97658ZM6.24875 0H2.72783V1.56872H6.24875V0ZM2.72783 0C1.97375 0 1.24611 0.128535 0.715484 0.599995C0.161207 1.09247 0 1.79459 0 2.50996H1.56872C1.56872 1.99649 1.6864 1.83581 1.75743 1.7727C1.85212 1.68857 2.09621 1.56872 2.72783 1.56872V0ZM0 2.50996V6.45791H1.56872V2.50996H0ZM0 6.45791C0 7.17601 0.160451 7.87993 0.716629 8.37216C1.24814 8.84255 1.97655 8.96787 2.72783 8.96787V7.39914C2.09342 7.39914 1.85009 7.28043 1.75629 7.19742C1.68716 7.13624 1.56872 6.97737 1.56872 6.45791H0ZM2.72783 8.96787H6.24875V7.39914H2.72783V8.96787ZM6.24381 8.96786C6.99834 8.9726 7.72762 8.84764 8.25996 8.37651C8.81563 7.88473 8.97658 7.18141 8.97658 6.46662H7.40786C7.40786 6.98067 7.28993 7.14015 7.2203 7.20178C7.12732 7.28406 6.88487 7.40313 6.25368 7.39915L6.24381 8.96786Z" fill="white"/>
<path d="M8.97658 16.2713V12.7504H7.40786V16.2713H8.97658ZM8.97658 12.7504C8.97658 11.979 8.82596 11.2356 8.29475 10.7044C7.76354 10.1732 7.02016 10.0226 6.24875 10.0226V11.5913C6.86304 11.5913 7.0914 11.7196 7.1855 11.8137C7.2796 11.9078 7.40786 12.1361 7.40786 12.7504H8.97658ZM6.24875 10.0226H2.72783V11.5913H6.24875V10.0226ZM2.72783 10.0226C1.95643 10.0226 1.21304 10.1732 0.681832 10.7044C0.15062 11.2356 0 11.979 0 12.7504H1.56872C1.56872 12.1361 1.69699 11.9078 1.79109 11.8137C1.88519 11.7196 2.11354 11.5913 2.72783 11.5913V10.0226ZM0 12.7504V16.2713H1.56872V12.7504H0ZM0 16.2713C0 17.0428 0.15062 17.7861 0.681832 18.3174C1.21304 18.8486 1.95643 18.9992 2.72783 18.9992V17.4305C2.11354 17.4305 1.88519 17.3022 1.79109 17.2081C1.69699 17.114 1.56872 16.8856 1.56872 16.2713H0ZM2.72783 18.9992H6.24875V17.4305H2.72783V18.9992ZM6.24875 18.9992C7.02016 18.9992 7.76354 18.8486 8.29475 18.3174C8.82596 17.7861 8.97658 17.0428 8.97658 16.2713H7.40786C7.40786 16.8856 7.2796 17.114 7.1855 17.2081C7.0914 17.3022 6.86304 17.4305 6.24875 17.4305V18.9992Z" fill="white"/>
<path d="M11.68 13.5086C11.2468 13.5086 10.8956 13.8598 10.8956 14.293C10.8956 14.7262 11.2468 15.0774 11.68 15.0774V13.5086ZM16.9091 15.0774C17.3423 15.0774 17.6934 14.7262 17.6934 14.293C17.6934 13.8598 17.3423 13.5086 16.9091 13.5086V15.0774ZM11.68 15.0774H16.9091V13.5086H11.68V15.0774Z" fill="white"/>
<path d="M13.5086 16.9075C13.5086 17.3407 13.8598 17.6919 14.293 17.6919C14.7262 17.6919 15.0774 17.3407 15.0774 16.9075H13.5086ZM15.0774 11.6785C15.0774 11.2453 14.7262 10.8941 14.293 10.8941C13.8598 10.8941 13.5086 11.2453 13.5086 11.6785H15.0774ZM15.0774 16.9075V11.6785H13.5086V16.9075H15.0774Z" fill="white"/>
</svg>
