<svg width="23" height="24" viewBox="0 0 23 24" fill="none" xmlns="http://www.w3.org/2000/svg">
<g clip-path="url(#clip0_0_1728)">
<path d="M11.5001 22C16.7928 22 21.0834 17.5228 21.0834 12C21.0834 6.47715 16.7928 2 11.5001 2C6.20735 2 1.91675 6.47715 1.91675 12C1.91675 17.5228 6.20735 22 11.5001 22Z" fill="#F0F0F0"/>
<path d="M3.89774 5.91211C3.14496 6.9341 2.57734 8.11203 2.24683 9.39168H7.23233L3.89774 5.91211Z" fill="#0052B4"/>
<path d="M20.7533 9.39164C20.4227 8.11203 19.8551 6.9341 19.1023 5.91211L15.7678 9.39164H20.7533Z" fill="#0052B4"/>
<path d="M2.24683 14.6089C2.57738 15.8885 3.145 17.0664 3.89774 18.0884L7.23222 14.6089H2.24683Z" fill="#0052B4"/>
<path d="M17.3346 4.06746C16.3551 3.28195 15.2263 2.68965 14 2.34473V7.54695L17.3346 4.06746Z" fill="#0052B4"/>
<path d="M5.66553 19.9331C6.64494 20.7186 7.77379 21.3109 9.00008 21.6558V16.4536L5.66553 19.9331Z" fill="#0052B4"/>
<path d="M9.00004 2.34473C7.77375 2.68965 6.6449 3.28195 5.66553 4.06742L9.00004 7.54691V2.34473Z" fill="#0052B4"/>
<path d="M14 21.6558C15.2263 21.3109 16.3551 20.7186 17.3345 19.9331L14 16.4536V21.6558Z" fill="#0052B4"/>
<path d="M15.7678 14.6089L19.1023 18.0884C19.8551 17.0665 20.4227 15.8885 20.7533 14.6089H15.7678Z" fill="#0052B4"/>
<path d="M21.0023 10.6957H12.7501H12.7501V2.08465C12.3409 2.02906 11.9237 2 11.5001 2C11.0764 2 10.6593 2.02906 10.2501 2.08465V10.6956V10.6956H1.99787C1.9446 11.1226 1.91675 11.5579 1.91675 12C1.91675 12.4421 1.9446 12.8774 1.99787 13.3043H10.25H10.2501V21.9154C10.6593 21.9709 11.0764 22 11.5001 22C11.9237 22 12.3409 21.971 12.7501 21.9154V13.3044V13.3044H21.0023C21.0556 12.8774 21.0834 12.4421 21.0834 12C21.0834 11.5579 21.0556 11.1226 21.0023 10.6957Z" fill="#D80027"/>
<path d="M14 14.6089L18.2764 19.0713C18.4731 18.8661 18.6607 18.6516 18.8397 18.4293L15.1785 14.6089H14V14.6089Z" fill="#D80027"/>
<path d="M9.00008 14.6089H9.00001L4.72363 19.0712C4.92024 19.2764 5.1258 19.4722 5.33888 19.659L9.00008 15.8385V14.6089Z" fill="#D80027"/>
<path d="M9.00013 9.39117V9.39109L4.72372 4.92871C4.52704 5.13387 4.33941 5.34836 4.1604 5.5707L7.82165 9.39113H9.00013V9.39117Z" fill="#D80027"/>
<path d="M14 9.39151L18.2765 4.92908C18.0798 4.72385 17.8743 4.52807 17.6612 4.34131L14 8.16174V9.39151Z" fill="#D80027"/>
</g>
<defs>
<clipPath id="clip0_0_1728">
<rect width="19.1667" height="20" fill="white" transform="translate(1.91675 2)"/>
</clipPath>
</defs>
</svg>
