<svg width="17" height="17" viewBox="0 0 17 17" fill="none" xmlns="http://www.w3.org/2000/svg">
<path d="M11.9494 9.26502V12.835C11.9494 15.81 10.7545 17 7.76712 17H4.1823C1.19494 17 0 15.81 0 12.835V9.26502C0 6.29004 1.19494 5.10005 4.1823 5.10005H7.76712C10.7545 5.10005 11.9494 6.29004 11.9494 9.26502Z" fill="#B7BABC"/>
<path d="M12.8105 0H9.22563C6.70779 0 5.4692 0.851363 5.14168 2.89416C5.04175 3.51742 5.56966 4.03747 6.20345 4.03747H7.68927C11.2741 4.03747 12.9385 5.69495 12.9385 9.26493V10.7446C12.9385 11.3757 13.4607 11.9015 14.0865 11.802C16.1378 11.4758 16.9927 10.2423 16.9927 7.73494V4.16497C16.9927 1.18999 15.7978 0 12.8105 0Z" fill="#B7BABC"/>
</svg>
