<svg width="22" height="19" viewBox="0 0 22 19" fill="none" xmlns="http://www.w3.org/2000/svg">
<path d="M4.84745 3.72927V1.01707C4.84745 0.747329 4.9653 0.488633 5.17509 0.297894C5.38487 0.107156 5.66941 0 5.96609 0C6.26277 0 6.5473 0.107156 6.75709 0.297894C6.96687 0.488633 7.08473 0.747329 7.08473 1.01707V3.72927C7.08473 3.99902 6.96687 4.25771 6.75709 4.44845C6.5473 4.63919 6.26277 4.74635 5.96609 4.74635C5.66941 4.74635 5.38487 4.63919 5.17509 4.44845C4.9653 4.25771 4.84745 3.99902 4.84745 3.72927ZM9.32201 4.74635C9.61869 4.74635 9.90322 4.63919 10.113 4.44845C10.3228 4.25771 10.4407 3.99902 10.4407 3.72927V1.01707C10.4407 0.747329 10.3228 0.488633 10.113 0.297894C9.90322 0.107156 9.61869 0 9.32201 0C9.02533 0 8.7408 0.107156 8.53101 0.297894C8.32123 0.488633 8.20337 0.747329 8.20337 1.01707V3.72927C8.20337 3.99902 8.32123 4.25771 8.53101 4.44845C8.7408 4.63919 9.02533 4.74635 9.32201 4.74635ZM12.6779 4.74635C12.9746 4.74635 13.2591 4.63919 13.4689 4.44845C13.6787 4.25771 13.7966 3.99902 13.7966 3.72927V1.01707C13.7966 0.747329 13.6787 0.488633 13.4689 0.297894C13.2591 0.107156 12.9746 0 12.6779 0C12.3813 0 12.0967 0.107156 11.8869 0.297894C11.6772 0.488633 11.5593 0.747329 11.5593 1.01707V3.72927C11.5593 3.99902 11.6772 4.25771 11.8869 4.44845C12.0967 4.63919 12.3813 4.74635 12.6779 4.74635ZM21.9999 9.15367V9.83172C21.9986 10.8019 21.5819 11.7334 20.8381 12.429C20.0943 13.1246 19.0819 13.5297 18.0153 13.5583C17.5881 14.5619 16.9561 15.483 16.1525 16.2732H17.5254C17.8221 16.2732 18.1066 16.3803 18.3164 16.5711C18.5262 16.7618 18.644 17.0205 18.644 17.2903C18.644 17.56 18.5262 17.8187 18.3164 18.0094C18.1066 18.2002 17.8221 18.3073 17.5254 18.3073H12.7564C12.7523 18.3073 12.7482 18.3079 12.7441 18.3079C12.7381 18.3079 12.732 18.3074 12.7259 18.3073H1.11864C0.821959 18.3073 0.537428 18.2002 0.327642 18.0094C0.117857 17.8187 0 17.56 0 17.2903C0 17.0205 0.117857 16.7618 0.327642 16.5711C0.537428 16.3803 0.821959 16.2732 1.11864 16.2732H2.49149C0.893128 14.7054 0.00348557 12.6475 0 10.5098V6.44147C0 6.17173 0.117857 5.91303 0.327642 5.72229C0.537428 5.53155 0.821959 5.4244 1.11864 5.4244H17.8983C18.9857 5.42552 20.0283 5.81878 20.7972 6.51791C21.5662 7.21704 21.9987 8.16495 21.9999 9.15367ZM12.4893 16.2732C13.3652 15.8728 14.1407 15.3121 14.7671 14.6262C15.3934 13.9404 15.8571 13.1443 16.129 12.2879C16.1345 12.2685 16.1399 12.2492 16.1466 12.2305C16.3188 11.6703 16.4064 11.0914 16.4067 10.5098V7.45854H2.23728V10.5098C2.23987 11.7059 2.60743 12.878 3.29907 13.8955C3.99072 14.913 4.97931 15.7361 6.15486 16.2732H12.4893ZM19.7627 9.15367C19.7622 8.82406 19.6562 8.50171 19.4575 8.226C19.2589 7.95028 18.9762 7.73314 18.644 7.6011V10.5098C18.6439 10.8085 18.6262 11.1071 18.5912 11.4041C18.9366 11.2781 19.2328 11.0611 19.4415 10.7809C19.6503 10.5007 19.7621 10.1701 19.7627 9.83172V9.15367Z" fill="#BABBC3"/>
</svg>
