<svg width="22" height="22" viewBox="0 0 22 22" fill="none" xmlns="http://www.w3.org/2000/svg">
<path d="M3.8372 9.7209H5.8837V8.18602H3.8372V9.7209ZM5.8837 9.7209C7.02525 9.7209 8.02237 9.43499 8.72868 8.72868C9.43499 8.02237 9.7209 7.02525 9.7209 5.8837H8.18602C8.18602 6.78866 7.9603 7.32642 7.64336 7.64336C7.32642 7.9603 6.78866 8.18602 5.8837 8.18602V9.7209ZM9.7209 5.8837V3.8372H8.18602V5.8837H9.7209ZM9.7209 3.8372C9.7209 2.69565 9.43499 1.69853 8.72868 0.992217C8.02237 0.285907 7.02525 0 5.8837 0V1.53488C6.78866 1.53488 7.32642 1.7606 7.64336 2.07754C7.9603 2.39448 8.18602 2.93224 8.18602 3.8372H9.7209ZM5.8837 0H3.8372V1.53488H5.8837V0ZM3.8372 0C2.69565 0 1.69853 0.285907 0.992217 0.992217C0.285907 1.69853 0 2.69565 0 3.8372H1.53488C1.53488 2.93224 1.7606 2.39448 2.07754 2.07754C2.39448 1.7606 2.93224 1.53488 3.8372 1.53488V0ZM0 3.8372V5.8837H1.53488V3.8372H0ZM0 5.8837C0 7.02525 0.285907 8.02237 0.992217 8.72868C1.69853 9.43499 2.69565 9.7209 3.8372 9.7209V8.18602C2.93224 8.18602 2.39448 7.9603 2.07754 7.64336C1.7606 7.32642 1.53488 6.78866 1.53488 5.8837H0Z" fill="white"/>
<path d="M16.1163 9.7209H18.1628V8.18602H16.1163V9.7209ZM18.1628 9.7209C19.3043 9.7209 20.3015 9.43499 21.0078 8.72868C21.7141 8.02237 22 7.02525 22 5.8837H20.4651C20.4651 6.78866 20.2394 7.32642 19.9224 7.64336C19.6055 7.9603 19.0677 8.18602 18.1628 8.18602V9.7209ZM22 5.8837V3.8372H20.4651V5.8837H22ZM22 3.8372C22 2.69565 21.7141 1.69853 21.0078 0.992217C20.3015 0.285907 19.3043 0 18.1628 0V1.53488C19.0677 1.53488 19.6055 1.7606 19.9224 2.07754C20.2394 2.39448 20.4651 2.93224 20.4651 3.8372H22ZM18.1628 0H16.1163V1.53488H18.1628V0ZM16.1163 0C14.9747 0 13.9776 0.285907 13.2713 0.992217C12.565 1.69853 12.2791 2.69565 12.2791 3.8372H13.814C13.814 2.93224 14.0397 2.39448 14.3566 2.07754C14.6736 1.7606 15.2113 1.53488 16.1163 1.53488V0ZM12.2791 3.8372V5.8837H13.814V3.8372H12.2791ZM12.2791 5.8837C12.2791 7.02525 12.565 8.02237 13.2713 8.72868C13.9776 9.43499 14.9747 9.7209 16.1163 9.7209V8.18602C15.2113 8.18602 14.6736 7.9603 14.3566 7.64336C14.0397 7.32642 13.814 6.78866 13.814 5.8837H12.2791Z" fill="white"/>
<path d="M16.1163 21.9995H18.1628V20.4646H16.1163V21.9995ZM18.1628 21.9995C19.3043 21.9995 20.3015 21.7136 21.0078 21.0073C21.7141 20.301 22 19.3038 22 18.1623H20.4651C20.4651 19.0672 20.2394 19.605 19.9224 19.9219C19.6055 20.2389 19.0677 20.4646 18.1628 20.4646V21.9995ZM22 18.1623V16.1158H20.4651V18.1623H22ZM22 16.1158C22 14.9742 21.7141 13.9771 21.0078 13.2708C20.3015 12.5645 19.3043 12.2786 18.1628 12.2786V13.8135C19.0677 13.8135 19.6055 14.0392 19.9224 14.3561C20.2394 14.6731 20.4651 15.2108 20.4651 16.1158H22ZM18.1628 12.2786H16.1163V13.8135H18.1628V12.2786ZM16.1163 12.2786C14.9747 12.2786 13.9776 12.5645 13.2713 13.2708C12.565 13.9771 12.2791 14.9742 12.2791 16.1158H13.814C13.814 15.2108 14.0397 14.6731 14.3566 14.3561C14.6736 14.0392 15.2113 13.8135 16.1163 13.8135V12.2786ZM12.2791 16.1158V18.1623H13.814V16.1158H12.2791ZM12.2791 18.1623C12.2791 19.3038 12.565 20.301 13.2713 21.0073C13.9776 21.7136 14.9747 21.9995 16.1163 21.9995V20.4646C15.2113 20.4646 14.6736 20.2389 14.3566 19.9219C14.0397 19.605 13.814 19.0672 13.814 18.1623H12.2791Z" fill="white"/>
<path d="M3.8372 21.9995H5.8837V20.4646H3.8372V21.9995ZM5.8837 21.9995C7.02525 21.9995 8.02237 21.7136 8.72868 21.0073C9.43499 20.301 9.7209 19.3038 9.7209 18.1623H8.18602C8.18602 19.0672 7.9603 19.605 7.64336 19.9219C7.32642 20.2389 6.78866 20.4646 5.8837 20.4646V21.9995ZM9.7209 18.1623V16.1158H8.18602V18.1623H9.7209ZM9.7209 16.1158C9.7209 14.9742 9.43499 13.9771 8.72868 13.2708C8.02237 12.5645 7.02525 12.2786 5.8837 12.2786V13.8135C6.78866 13.8135 7.32642 14.0392 7.64336 14.3561C7.9603 14.6731 8.18602 15.2108 8.18602 16.1158H9.7209ZM5.8837 12.2786H3.8372V13.8135H5.8837V12.2786ZM3.8372 12.2786C2.69565 12.2786 1.69853 12.5645 0.992217 13.2708C0.285907 13.9771 0 14.9742 0 16.1158H1.53488C1.53488 15.2108 1.7606 14.6731 2.07754 14.3561C2.39448 14.0392 2.93224 13.8135 3.8372 13.8135V12.2786ZM0 16.1158V18.1623H1.53488V16.1158H0ZM0 18.1623C0 19.3038 0.285907 20.301 0.992217 21.0073C1.69853 21.7136 2.69565 21.9995 3.8372 21.9995V20.4646C2.93224 20.4646 2.39448 20.2389 2.07754 19.9219C1.7606 19.605 1.53488 19.0672 1.53488 18.1623H0Z" fill="white"/>
</svg>
