<svg width="16" height="16" viewBox="0 0 16 16" fill="none" xmlns="http://www.w3.org/2000/svg">
<path d="M6.66667 8H3.33333C2.97971 8 2.64057 7.85952 2.39052 7.60948C2.14048 7.35943 2 7.02029 2 6.66667V3.33333C2 2.97971 2.14048 2.64057 2.39052 2.39052C2.64057 2.14048 2.97971 2 3.33333 2H6.66667C7.02029 2 7.35943 2.14048 7.60948 2.39052C7.85952 2.64057 8 2.97971 8 3.33333V6.66667C8 7.02029 7.85952 7.35943 7.60948 7.60948C7.35943 7.85952 7.02029 8 6.66667 8Z" stroke="#637592" stroke-width="1.25" stroke-linecap="round" stroke-linejoin="round"/>
<path d="M12.3334 13.3333H10.3334C10.0682 13.3333 9.8138 13.2279 9.62627 13.0404C9.43873 12.8528 9.33337 12.5985 9.33337 12.3333V10.3333C9.33337 10.068 9.43873 9.81368 9.62627 9.62615C9.8138 9.43861 10.0682 9.33325 10.3334 9.33325H12.3334C12.5986 9.33325 12.8529 9.43861 13.0405 9.62615C13.228 9.81368 13.3334 10.068 13.3334 10.3333V12.3333C13.3334 12.5985 13.228 12.8528 13.0405 13.0404C12.8529 13.2279 12.5986 13.3333 12.3334 13.3333Z" stroke="#637592" stroke-width="1.25" stroke-linecap="round" stroke-linejoin="round"/>
<path d="M13 7.33325H11C10.7348 7.33325 10.4804 7.2279 10.2929 7.04036C10.1054 6.85282 10 6.59847 10 6.33325V4.33325C10 4.06804 10.1054 3.81368 10.2929 3.62615C10.4804 3.43861 10.7348 3.33325 11 3.33325H13C13.2652 3.33325 13.5196 3.43861 13.7071 3.62615C13.8946 3.81368 14 4.06804 14 4.33325V6.33325C14 6.59847 13.8946 6.85282 13.7071 7.04036C13.5196 7.2279 13.2652 7.33325 13 7.33325Z" stroke="#637592" stroke-width="1.25" stroke-linecap="round" stroke-linejoin="round"/>
<path d="M6.33337 14H4.33337C4.06816 14 3.8138 13.8946 3.62627 13.7071C3.43873 13.5196 3.33337 13.2652 3.33337 13V11C3.33337 10.7348 3.43873 10.4804 3.62627 10.2929C3.8138 10.1054 4.06816 10 4.33337 10H6.33337C6.59859 10 6.85294 10.1054 7.04048 10.2929C7.22802 10.4804 7.33337 10.7348 7.33337 11V13C7.33337 13.2652 7.22802 13.5196 7.04048 13.7071C6.85294 13.8946 6.59859 14 6.33337 14Z" stroke="#637592" stroke-width="1.25" stroke-linecap="round" stroke-linejoin="round"/>
</svg>
